<svg width="443" height="370" viewBox="0 0 443 370" fill="none" xmlns="http://www.w3.org/2000/svg">
<path opacity="0.3" d="M69.2 327.2C75.5 330.5 82.2 333.5 89.5 336C104.8 341 121.1 342.8 137.1 343.7C153.1 344.5 170.8 346.3 186.8 344.8C222.7 341.3 260.6 341.7 295.7 349.8C306.5 352.3 314.3 361.9 325.4 365.4C355.3 374.9 390.3 368.6 414.4 349.4C452.4 319.1 445.7 274.3 429 234.9C424 223.1 416.5 212.4 415.1 199.3C412.9 177.4 427.5 161.8 429.8 141.5C432.3 120.6 428.5 96.2 416.2 78.4C398 52.2 372.8 30.4 343.5 15.6C305.4 -3.59999 269.2 -5.79999 229.5 13.2C219.6 17.9 211.3 25.4 201.7 30.6C191.4 36 180.8 40.8 169.7 44.4C148 51.5 124.7 55 102.4 55.8C79 56.7 56 61.8 39.4 79.5C-20.3 143.1 -13.5 282.4 69.2 327.2Z" fill="url(#paint0_linear)"/>
<path opacity="0.65" d="M242.1 22.6C231.8 25.4 222.2 29.3 212 32.8C201.3 36.6 190.3 40.2 179.4 43.9C158 51 136.3 57.8 115.8 64.7C94.8 71.5 74.6 81.9 59.1 99.5C28.7 134.4 12.8 184 15.9 234.1C18.8 280.8 48.9 321.4 92.2 332.2C95.3 333.9 104.2 335.1 115.6 336.6C131.5 338.8 150.1 340.2 168.2 340.8C191 341.4 213.2 342.3 222.8 341.6C252 339.5 281.8 337.6 309.1 337.2C317.6 337.1 324.4 340.3 332.8 340.1C355.8 340 380.1 330.1 398 313.1C424.2 287.9 426.1 253.9 419.7 221.5C417.8 211.9 414.3 202.7 413.6 192.1C412.3 171.2 416.2 156.9 412.2 141.4C407.8 124.5 397.9 107.8 386.2 91.8C370.7 70.7 352.6 51.3 331.5 37.2C305.6 20.1 279.3 12.8 247.3 21.1C245.5 21.6 243.8 22 242.1 22.6Z" fill="url(#paint1_linear)"/>
<path d="M258.7 31.9C257.3 31.9 256.1 31.9 254.7 31.9C140.1 34.3 30.3 130.6 30.3 251.9C30.3 298.8 68.3 336.8 115.2 336.8C115.2 336.8 251.4 338.3 258.7 338.3C343.3 338.3 411.9 269.6 411.9 185.1C411.9 141.8 376.1 131.6 355.9 105.6C327.9 69.6 307.9 31.9 258.7 31.9Z" fill="url(#paint2_linear)"/>
<path d="M314 139.1C314.773 139.1 315.4 138.473 315.4 137.7C315.4 136.927 314.773 136.3 314 136.3C313.227 136.3 312.6 136.927 312.6 137.7C312.6 138.473 313.227 139.1 314 139.1Z" fill="white"/>
<path d="M295.9 302C296.673 302 297.3 301.373 297.3 300.6C297.3 299.827 296.673 299.2 295.9 299.2C295.127 299.2 294.5 299.827 294.5 300.6C294.5 301.373 295.127 302 295.9 302Z" fill="white"/>
<path d="M282.4 69.6C283.173 69.6 283.8 68.9732 283.8 68.2C283.8 67.4268 283.173 66.8 282.4 66.8C281.627 66.8 281 67.4268 281 68.2C281 68.9732 281.627 69.6 282.4 69.6Z" fill="white"/>
<path d="M369.1 223.6C369.873 223.6 370.5 222.973 370.5 222.2C370.5 221.427 369.873 220.8 369.1 220.8C368.327 220.8 367.7 221.427 367.7 222.2C367.7 222.973 368.327 223.6 369.1 223.6Z" fill="white"/>
<path d="M168.5 78.3C169.273 78.3 169.9 77.6732 169.9 76.9C169.9 76.1268 169.273 75.5 168.5 75.5C167.727 75.5 167.1 76.1268 167.1 76.9C167.1 77.6732 167.727 78.3 168.5 78.3Z" fill="white"/>
<path d="M96.2 183C96.9732 183 97.6 182.373 97.6 181.6C97.6 180.827 96.9732 180.2 96.2 180.2C95.4268 180.2 94.8 180.827 94.8 181.6C94.8 182.373 95.4268 183 96.2 183Z" fill="white"/>
<path d="M154.8 307.6C155.573 307.6 156.2 306.973 156.2 306.2C156.2 305.427 155.573 304.8 154.8 304.8C154.027 304.8 153.4 305.427 153.4 306.2C153.4 306.973 154.027 307.6 154.8 307.6Z" fill="white"/>
<path d="M58.6 258C59.3732 258 60 257.373 60 256.6C60 255.827 59.3732 255.2 58.6 255.2C57.8268 255.2 57.2 255.827 57.2 256.6C57.2 257.373 57.8268 258 58.6 258Z" fill="white"/>
<path d="M332.3 122.8C333.073 122.8 333.7 122.173 333.7 121.4C333.7 120.627 333.073 120 332.3 120C331.527 120 330.9 120.627 330.9 121.4C330.9 122.173 331.527 122.8 332.3 122.8Z" fill="white"/>
<path d="M229.2 68.3C229.973 68.3 230.6 67.6732 230.6 66.9C230.6 66.1268 229.973 65.5 229.2 65.5C228.427 65.5 227.8 66.1268 227.8 66.9C227.8 67.6732 228.427 68.3 229.2 68.3Z" fill="white"/>
<path d="M345.6 227.9C346.981 227.9 348.1 226.781 348.1 225.4C348.1 224.019 346.981 222.9 345.6 222.9C344.219 222.9 343.1 224.019 343.1 225.4C343.1 226.781 344.219 227.9 345.6 227.9Z" fill="white"/>
<path d="M121.7 315.9C123.081 315.9 124.2 314.781 124.2 313.4C124.2 312.019 123.081 310.9 121.7 310.9C120.319 310.9 119.2 312.019 119.2 313.4C119.2 314.781 120.319 315.9 121.7 315.9Z" fill="white"/>
<path d="M67 208.5C68.3807 208.5 69.5 207.381 69.5 206C69.5 204.619 68.3807 203.5 67 203.5C65.6193 203.5 64.5 204.619 64.5 206C64.5 207.381 65.6193 208.5 67 208.5Z" fill="white"/>
<defs>
<linearGradient id="paint0_linear" x1="33.2834" y1="-3.9823" x2="392.491" y2="352.441" gradientUnits="userSpaceOnUse">
<stop stop-color="#404898"/>
<stop offset="1" stop-color="#EE78AC"/>
</linearGradient>
<linearGradient id="paint1_linear" x1="-12.4442" y1="-58.3864" x2="413.339" y2="418.204" gradientUnits="userSpaceOnUse">
<stop stop-color="#404898"/>
<stop offset="1" stop-color="#EE78AC"/>
</linearGradient>
<linearGradient id="paint2_linear" x1="-29.971" y1="-94.9992" x2="410.145" y2="461.646" gradientUnits="userSpaceOnUse">
<stop stop-color="#404898"/>
<stop offset="1" stop-color="#EE78AC"/>
</linearGradient>
</defs>
</svg>
