<svg width="245" height="267" viewBox="0 0 245 267" fill="none" xmlns="http://www.w3.org/2000/svg">
<g opacity="0.2">
<path opacity="0.35" d="M216.6 159.2C224.2 164.5 224.4 173.1 217.1 178.5L102.2 262.4C94.8 267.8 82.7 267.8 75.1 262.6L6.00001 214.7C-1.59999 209.4 -1.79999 200.8 5.60001 195.4L120.5 111.5C127.9 106.1 140 106.1 147.6 111.3L216.6 159.2Z" fill="#2E2C6F"/>
</g>
<path d="M150.128 33.1792L121.405 16.8754C110.484 11.207 96.5006 12.0885 81.2566 20.8899C46.3213 41.0592 18 95.1733 18 141.754C18 169.46 28.0206 185.925 43.4914 194.702L67.012 208.28V208.278C77.9782 214.122 92.0774 213.308 107.462 204.425C142.399 184.254 170.72 130.142 170.72 83.5611C170.72 44.3238 150.128 33.1792 150.128 33.1792Z" fill="#B23B2F"/>
<path d="M170.72 83.5612C170.72 130.142 142.399 184.256 107.463 204.425C72.5263 224.596 44.205 203.185 44.205 156.605C44.205 110.022 72.5263 55.9101 107.463 35.739C142.399 15.5696 170.72 36.979 170.72 83.5612Z" fill="#E84C3D"/>
<path d="M151.373 94.73C151.373 127.066 131.713 164.628 107.463 178.629C83.2119 192.629 63.5534 177.768 63.5534 145.434C63.5534 113.1 83.2119 75.5374 107.463 61.5352C131.713 47.5347 151.373 62.3959 151.373 94.73Z" fill="white"/>
<path d="M131.426 106.247C131.426 123.893 120.697 144.391 107.463 152.032C94.2284 159.673 83.4994 151.563 83.4994 133.917C83.4994 116.271 94.2284 95.7726 107.463 88.1315C120.697 80.4923 131.426 88.6026 131.426 106.247Z" fill="#E84C3D"/>
<path d="M165.772 154.632L174.286 186.401L221.661 213.755L213.089 181.76L165.772 154.632Z" fill="#0D68BE"/>
<path d="M245 173.329L213.231 181.841L165.855 154.49L197.848 145.917L245 173.329Z" fill="#0D68BE"/>
<path d="M216.466 190.456C215.357 190.456 214.235 190.173 213.206 189.583L108.783 129.53C105.647 127.727 104.566 123.721 106.369 120.585C108.173 117.449 112.179 116.37 115.316 118.173L219.737 178.224C222.874 180.026 223.954 184.032 222.151 187.169C220.939 189.276 218.734 190.456 216.466 190.456Z" fill="#424242"/>
</svg>
