<svg width="1440" height="603" viewBox="0 0 1440 603" fill="none" xmlns="http://www.w3.org/2000/svg">
<g clip-path="url(#clip0)">
<path d="M468.972 155.852C468.972 155.252 469.491 154.751 470.113 154.751C470.735 154.751 471.254 155.252 471.254 155.852C471.254 156.452 470.735 156.952 470.113 156.952C469.491 157.052 468.972 156.552 468.972 155.852Z" fill="url(#paint0_linear)"/>
<path d="M754.388 138.346C755.706 138.346 756.774 137.316 756.774 136.045C756.774 134.774 755.706 133.744 754.388 133.744C753.071 133.744 752.003 134.774 752.003 136.045C752.003 137.316 753.071 138.346 754.388 138.346Z" fill="url(#paint1_linear)"/>
<path d="M822.216 309.303C822.216 308.002 823.253 307.002 824.601 307.002C825.949 307.002 826.987 308.002 826.987 309.303C826.987 310.603 825.949 311.603 824.601 311.603C823.253 311.603 822.216 310.503 822.216 309.303Z" fill="url(#paint2_linear)"/>
<path d="M860.693 227.275C860.693 225.975 861.73 224.975 863.079 224.975C864.427 224.975 865.464 225.975 865.464 227.275C865.464 228.576 864.427 229.576 863.079 229.576C861.834 229.576 860.693 228.576 860.693 227.275Z" fill="url(#paint3_linear)"/>
<path d="M913.794 203.868C913.794 202.567 914.831 201.567 916.179 201.567C917.528 201.567 918.565 202.567 918.565 203.868C918.565 205.168 917.528 206.168 916.179 206.168C914.831 206.168 913.794 205.168 913.794 203.868Z" fill="url(#paint4_linear)"/>
<path d="M999.149 309.303C999.149 308.502 999.771 307.902 1000.6 307.902C1001.43 307.902 1002.05 308.502 1002.05 309.303C1002.05 310.103 1001.43 310.703 1000.6 310.703C999.771 310.703 999.149 310.003 999.149 309.303Z" fill="url(#paint5_linear)"/>
<path d="M1097.16 446.148C1097.16 444.847 1098.19 443.847 1099.54 443.847C1100.89 443.847 1101.93 444.847 1101.93 446.148C1101.93 447.448 1100.89 448.449 1099.54 448.449C1098.3 448.349 1097.16 447.348 1097.16 446.148Z" fill="url(#paint6_linear)"/>
<path d="M1112.3 185.261C1112.3 183.961 1113.34 182.961 1114.68 182.961C1116.03 182.961 1117.07 183.961 1117.07 185.261C1117.07 186.562 1116.03 187.562 1114.68 187.562C1113.34 187.562 1112.3 186.562 1112.3 185.261Z" fill="url(#paint7_linear)"/>
<path d="M1129.83 500.966C1129.83 499.666 1130.86 498.666 1132.21 498.666C1133.56 498.666 1134.6 499.666 1134.6 500.966C1134.6 502.267 1133.56 503.267 1132.21 503.267C1130.97 503.367 1129.83 502.267 1129.83 500.966Z" fill="url(#paint8_linear)"/>
<path d="M1194.65 273.591C1195.96 273.591 1197.03 272.561 1197.03 271.29C1197.03 270.019 1195.96 268.989 1194.65 268.989C1193.33 268.989 1192.26 270.019 1192.26 271.29C1192.26 272.561 1193.33 273.591 1194.65 273.591Z" fill="url(#paint9_linear)"/>
<path d="M1302.82 473.357C1302.82 472.757 1303.34 472.257 1303.96 472.257C1304.58 472.257 1305.1 472.757 1305.1 473.357C1305.1 473.957 1304.58 474.457 1303.96 474.457C1303.34 474.457 1302.82 474.057 1302.82 473.357Z" fill="url(#paint10_linear)"/>
<path d="M1331.03 183.061C1331.03 181.76 1332.07 180.76 1333.41 180.76C1334.76 180.76 1335.8 181.76 1335.8 183.061C1335.8 184.361 1334.76 185.362 1333.41 185.362C1332.17 185.262 1331.03 184.261 1331.03 183.061Z" fill="url(#paint11_linear)"/>
<path d="M1584.09 110.737V760.952H-469.416V110.737H41.8854C157.421 110.737 265.385 166.455 329.583 259.186C329.998 259.686 330.309 260.286 330.724 260.787C355.822 297.099 381.854 347.315 419.501 372.624C513.776 436.145 642.068 335.611 754.803 357.219C860.071 377.325 921.261 497.365 1026.94 515.171C1032.13 516.071 1037.31 516.671 1042.5 516.972H1068.95C1151.4 511.67 1235.09 460.753 1313.29 487.862C1331.34 494.064 1346.9 504.167 1359.76 516.972L1484.29 704L1584.09 110.737Z" fill="url(#paint12_linear)"/>
<path opacity="0.3" d="M-642.407 538.479C-685.137 487.962 -690.53 408.335 -649.667 356.318C-608.805 304.201 -501.67 251.784 -442.036 308.002C-402.625 345.214 -374.726 382.327 -318.618 390.93C-220.195 405.935 -122.602 327.108 -25.6312 350.716C50.0787 369.222 101.001 441.847 153.998 496.665C210.521 555.084 291.417 586.194 369.823 578.292C417.635 573.39 468.142 537.278 517.095 546.681C559.305 554.784 580.359 599.399 564.698 637.711C534.829 711.236 400.729 744.747 331.035 765.354C263.207 785.46 189.779 785.561 120.396 773.356C18.0316 755.25 -77.4873 712.436 -172.902 672.723C-268.318 633.01 -367.052 595.297 -470.868 588.895C-516.501 586.094 -564.831 588.895 -605.279 568.188C-619.591 560.786 -632.14 550.683 -642.407 538.479Z" fill="url(#paint13_linear)"/>
<path opacity="0.2" d="M1394.71 685.027C1384.34 713.537 1367.43 738.745 1346.48 760.852C1312.77 796.264 1268.39 823.473 1222.34 842.78C1139.58 877.591 1042.92 891.696 959.116 859.085C903.734 837.478 857.893 797.464 810.807 760.852C767.974 727.641 724 697.231 670.796 686.428C618.525 675.824 565.01 685.927 511.598 695.431C459.534 704.734 407.575 713.537 356.859 701.933C278.971 684.027 242.983 623.207 187.808 575.191C169.659 559.386 151.405 543.48 133.152 527.675C129.107 524.174 124.959 520.573 120.914 516.971C73.6213 475.958 26.4323 434.844 -20.7567 393.731C-28.0166 387.429 -36.3136 382.527 -45.0255 378.826C-86.0955 361.72 -140.441 371.523 -180.577 385.228C-234.404 403.534 -281.282 435.144 -334.382 454.351C-379.705 470.756 -422.849 485.661 -469.416 491.263C-484.039 493.064 -499.077 493.864 -514.634 493.564C-518.264 493.464 -521.998 493.264 -524.902 491.263C-529.258 488.162 -529.776 482.26 -529.984 477.058C-530.398 463.054 -530.398 447.749 -521.064 437.045C-511.938 426.642 -496.796 423.941 -483.002 420.94C-478.439 419.939 -473.875 418.939 -469.416 417.839C-431.146 408.636 -394.432 395.431 -360.829 377.225C-326.293 358.519 -295.179 334.311 -269.147 303.601C-220.921 246.582 -189.082 176.959 -131.625 127.242C-124.884 121.34 -117.728 115.838 -110.364 110.737C-90.3477 96.8321 -68.257 85.6284 -45.0255 77.5257C4.34155 60.1199 58.8942 56.2186 110.024 68.0225C145.598 76.2253 175.57 91.2302 201.913 110.637C254.703 149.45 292.765 205.868 330.724 260.686C355.822 296.999 381.854 347.215 419.501 372.524C513.776 436.045 642.068 335.511 754.803 357.118C860.071 377.325 921.261 497.365 1026.94 515.171C1032.13 516.071 1037.32 516.671 1042.5 516.971C1051.32 517.572 1060.13 517.572 1068.95 516.971C1151.4 511.67 1235.09 460.753 1313.29 487.862C1331.34 494.064 1346.9 504.167 1359.76 516.971C1401.66 558.585 1415.45 628.408 1394.71 685.027Z" fill="url(#paint14_linear)"/>
<path opacity="0.92" d="M1462.02 330.593C1465.34 360.202 1474.16 388.012 1473.95 418.122C1473.74 445.431 1467.31 472.24 1465.76 499.649C1464.82 515.754 1457.25 529.959 1455.39 545.564C1453.62 560.369 1457.25 577.374 1456.63 592.479C1455.18 629.892 1449.37 667.204 1439.41 703.416C1394.09 699.315 1352.71 667.404 1338.71 625.591C1328.44 595.28 1331.97 562.27 1325.75 530.959C1317.14 487.845 1288.41 449.532 1250.35 425.924C1209.07 400.316 1162.92 402.717 1123.82 370.906C1087.31 341.296 1075.59 283.277 1112.93 242.964C1154.31 198.349 1225.04 206.251 1262.27 151.133C1290.69 109.019 1314.23 58.9025 1368.99 49.9996C1402.29 44.5978 1436.72 61.8035 1458.5 84.411C1486.6 113.521 1476.03 144.731 1469.6 182.644C1461.09 232.96 1456.32 280.476 1462.02 330.593Z" fill="url(#paint15_linear)"/>
<g opacity="0.7">
<g opacity="0.7">
<path opacity="0.7" d="M918.565 203.868C918.565 205.168 917.527 206.168 916.179 206.168C914.831 206.168 913.794 205.168 913.794 203.868C913.794 202.567 914.831 201.567 916.179 201.567C917.527 201.567 918.565 202.667 918.565 203.868Z" fill="white"/>
<path opacity="0.7" d="M865.464 227.275C865.464 228.576 864.427 229.576 863.079 229.576C861.73 229.576 860.693 228.576 860.693 227.275C860.693 225.975 861.73 224.975 863.079 224.975C864.427 225.075 865.464 226.075 865.464 227.275Z" fill="white"/>
<path opacity="0.7" d="M471.254 155.852C471.254 156.452 470.736 156.952 470.113 156.952C469.491 156.952 468.972 156.452 468.972 155.852C468.972 155.252 469.491 154.751 470.113 154.751C470.736 154.851 471.254 155.252 471.254 155.852Z" fill="white"/>
<path opacity="0.7" d="M18.8615 268.989C20.1789 268.989 21.2469 267.959 21.2469 266.688C21.2469 265.418 20.1789 264.388 18.8615 264.388C17.5441 264.388 16.4761 265.418 16.4761 266.688C16.4761 267.959 17.5441 268.989 18.8615 268.989Z" fill="white"/>
<path opacity="0.7" d="M1101.93 446.148C1101.93 447.448 1100.89 448.449 1099.54 448.449C1098.19 448.449 1097.16 447.448 1097.16 446.148C1097.16 444.847 1098.19 443.847 1099.54 443.847C1100.89 443.847 1101.93 444.847 1101.93 446.148Z" fill="white"/>
<path opacity="0.7" d="M1002.05 309.303C1002.05 310.103 1001.43 310.703 1000.6 310.703C999.771 310.703 999.149 310.103 999.149 309.303C999.149 308.502 999.771 307.902 1000.6 307.902C1001.43 307.902 1002.05 308.502 1002.05 309.303Z" fill="white"/>
<path opacity="0.7" d="M1194.65 273.591C1195.96 273.591 1197.03 272.561 1197.03 271.29C1197.03 270.019 1195.96 268.989 1194.65 268.989C1193.33 268.989 1192.26 270.019 1192.26 271.29C1192.26 272.561 1193.33 273.591 1194.65 273.591Z" fill="white"/>
<path opacity="0.7" d="M1134.6 500.966C1134.6 502.267 1133.56 503.267 1132.21 503.267C1130.86 503.267 1129.83 502.267 1129.83 500.966C1129.83 499.666 1130.86 498.666 1132.21 498.666C1133.56 498.666 1134.6 499.766 1134.6 500.966Z" fill="white"/>
<path opacity="0.7" d="M826.987 309.303C826.987 310.603 825.95 311.603 824.602 311.603C823.253 311.603 822.216 310.603 822.216 309.303C822.216 308.002 823.253 307.002 824.602 307.002C825.95 307.002 826.987 308.002 826.987 309.303Z" fill="white"/>
<path opacity="0.7" d="M754.388 138.346C755.706 138.346 756.774 137.316 756.774 136.045C756.774 134.774 755.706 133.744 754.388 133.744C753.071 133.744 752.003 134.774 752.003 136.045C752.003 137.316 753.071 138.346 754.388 138.346Z" fill="white"/>
<path opacity="0.7" d="M247.754 313.804C249.072 313.804 250.14 312.774 250.14 311.503C250.14 310.233 249.072 309.203 247.754 309.203C246.437 309.203 245.369 310.233 245.369 311.503C245.369 312.774 246.437 313.804 247.754 313.804Z" fill="white"/>
<path opacity="0.7" d="M244.954 183.061C246.272 183.061 247.339 182.031 247.339 180.76C247.339 179.489 246.272 178.459 244.954 178.459C243.637 178.459 242.569 179.489 242.569 180.76C242.569 182.031 243.637 183.061 244.954 183.061Z" fill="white"/>
<path opacity="0.7" d="M1117.07 185.261C1117.07 186.562 1116.03 187.562 1114.68 187.562C1113.34 187.562 1112.3 186.562 1112.3 185.261C1112.3 183.961 1113.34 182.961 1114.68 182.961C1116.03 182.961 1117.07 184.061 1117.07 185.261Z" fill="white"/>
<path opacity="0.7" d="M127.759 443.747C129.077 443.747 130.145 442.717 130.145 441.447C130.145 440.176 129.077 439.146 127.759 439.146C126.442 439.146 125.374 440.176 125.374 441.447C125.374 442.717 126.442 443.747 127.759 443.747Z" fill="white"/>
</g>
<path opacity="0.7" d="M1305.1 473.357C1305.1 473.957 1304.58 474.457 1303.96 474.457C1303.34 474.457 1302.82 473.957 1302.82 473.357C1302.82 472.757 1303.34 472.257 1303.96 472.257C1304.58 472.357 1305.1 472.757 1305.1 473.357Z" fill="white"/>
<path opacity="0.7" d="M1282.39 605.501C1283.7 605.501 1284.77 604.471 1284.77 603.2C1284.77 601.929 1283.7 600.899 1282.39 600.899C1281.07 600.899 1280 601.929 1280 603.2C1280 604.471 1281.07 605.501 1282.39 605.501Z" fill="white"/>
<path opacity="0.7" d="M1335.8 183.061C1335.8 184.361 1334.76 185.362 1333.41 185.362C1332.07 185.362 1331.03 184.361 1331.03 183.061C1331.03 181.76 1332.07 180.76 1333.41 180.76C1334.76 180.76 1335.8 181.76 1335.8 183.061Z" fill="white"/>
</g>
</g>
<defs>
<linearGradient id="paint0_linear" x1="469.844" y1="157.059" x2="470.332" y2="154.707" gradientUnits="userSpaceOnUse">
<stop stop-color="#371B4C"/>
<stop offset="0.0540845" stop-color="#38215D"/>
<stop offset="0.2668" stop-color="#3D379B"/>
<stop offset="0.3676" stop-color="#3F40B4"/>
<stop offset="1" stop-color="#FB79B1"/>
</linearGradient>
<linearGradient id="paint1_linear" x1="753.835" y1="138.523" x2="754.856" y2="133.607" gradientUnits="userSpaceOnUse">
<stop stop-color="#371B4C"/>
<stop offset="0.0540845" stop-color="#38215D"/>
<stop offset="0.2668" stop-color="#3D379B"/>
<stop offset="0.3676" stop-color="#3F40B4"/>
<stop offset="1" stop-color="#FB79B1"/>
</linearGradient>
<linearGradient id="paint2_linear" x1="824.069" y1="311.685" x2="825.09" y2="306.769" gradientUnits="userSpaceOnUse">
<stop stop-color="#371B4C"/>
<stop offset="0.0540845" stop-color="#38215D"/>
<stop offset="0.2668" stop-color="#3D379B"/>
<stop offset="0.3676" stop-color="#3F40B4"/>
<stop offset="1" stop-color="#FB79B1"/>
</linearGradient>
<linearGradient id="paint3_linear" x1="862.525" y1="229.753" x2="863.546" y2="224.837" gradientUnits="userSpaceOnUse">
<stop stop-color="#371B4C"/>
<stop offset="0.0540845" stop-color="#38215D"/>
<stop offset="0.2668" stop-color="#3D379B"/>
<stop offset="0.3676" stop-color="#3F40B4"/>
<stop offset="1" stop-color="#FB79B1"/>
</linearGradient>
<linearGradient id="paint4_linear" x1="915.626" y1="206.345" x2="916.647" y2="201.429" gradientUnits="userSpaceOnUse">
<stop stop-color="#371B4C"/>
<stop offset="0.0540845" stop-color="#38215D"/>
<stop offset="0.2668" stop-color="#3D379B"/>
<stop offset="0.3676" stop-color="#3F40B4"/>
<stop offset="1" stop-color="#FB79B1"/>
</linearGradient>
<linearGradient id="paint5_linear" x1="1000.28" y1="310.731" x2="1000.9" y2="307.739" gradientUnits="userSpaceOnUse">
<stop stop-color="#371B4C"/>
<stop offset="0.0540845" stop-color="#38215D"/>
<stop offset="0.2668" stop-color="#3D379B"/>
<stop offset="0.3676" stop-color="#3F40B4"/>
<stop offset="1" stop-color="#FB79B1"/>
</linearGradient>
<linearGradient id="paint6_linear" x1="1099.01" y1="448.53" x2="1100.03" y2="443.614" gradientUnits="userSpaceOnUse">
<stop stop-color="#371B4C"/>
<stop offset="0.0540845" stop-color="#38215D"/>
<stop offset="0.2668" stop-color="#3D379B"/>
<stop offset="0.3676" stop-color="#3F40B4"/>
<stop offset="1" stop-color="#FB79B1"/>
</linearGradient>
<linearGradient id="paint7_linear" x1="1114.13" y1="187.739" x2="1115.15" y2="182.823" gradientUnits="userSpaceOnUse">
<stop stop-color="#371B4C"/>
<stop offset="0.0540845" stop-color="#38215D"/>
<stop offset="0.2668" stop-color="#3D379B"/>
<stop offset="0.3676" stop-color="#3F40B4"/>
<stop offset="1" stop-color="#FB79B1"/>
</linearGradient>
<linearGradient id="paint8_linear" x1="1131.66" y1="503.444" x2="1132.68" y2="498.528" gradientUnits="userSpaceOnUse">
<stop stop-color="#371B4C"/>
<stop offset="0.0540845" stop-color="#38215D"/>
<stop offset="0.2668" stop-color="#3D379B"/>
<stop offset="0.3676" stop-color="#3F40B4"/>
<stop offset="1" stop-color="#FB79B1"/>
</linearGradient>
<linearGradient id="paint9_linear" x1="1194.09" y1="273.768" x2="1195.11" y2="268.852" gradientUnits="userSpaceOnUse">
<stop stop-color="#371B4C"/>
<stop offset="0.0540845" stop-color="#38215D"/>
<stop offset="0.2668" stop-color="#3D379B"/>
<stop offset="0.3676" stop-color="#3F40B4"/>
<stop offset="1" stop-color="#FB79B1"/>
</linearGradient>
<linearGradient id="paint10_linear" x1="1303.69" y1="474.564" x2="1304.18" y2="472.212" gradientUnits="userSpaceOnUse">
<stop stop-color="#371B4C"/>
<stop offset="0.0540845" stop-color="#38215D"/>
<stop offset="0.2668" stop-color="#3D379B"/>
<stop offset="0.3676" stop-color="#3F40B4"/>
<stop offset="1" stop-color="#FB79B1"/>
</linearGradient>
<linearGradient id="paint11_linear" x1="1332.88" y1="185.443" x2="1333.9" y2="180.527" gradientUnits="userSpaceOnUse">
<stop stop-color="#371B4C"/>
<stop offset="0.0540845" stop-color="#38215D"/>
<stop offset="0.2668" stop-color="#3D379B"/>
<stop offset="0.3676" stop-color="#3F40B4"/>
<stop offset="1" stop-color="#FB79B1"/>
</linearGradient>
<linearGradient id="paint12_linear" x1="432.913" y1="993.145" x2="666.446" y2="-131.231" gradientUnits="userSpaceOnUse">
<stop stop-color="#371B4C"/>
<stop offset="0.0540845" stop-color="#38215D"/>
<stop offset="0.2668" stop-color="#3D379B"/>
<stop offset="0.3676" stop-color="#3F40B4"/>
<stop offset="1" stop-color="#FB79B1"/>
</linearGradient>
<linearGradient id="paint13_linear" x1="-677.564" y1="532.726" x2="569.871" y2="532.726" gradientUnits="userSpaceOnUse">
<stop stop-color="#3C3794"/>
<stop offset="0.5056" stop-color="#A43593"/>
<stop offset="1" stop-color="#DA2128"/>
</linearGradient>
<linearGradient id="paint14_linear" x1="-530.116" y1="469.357" x2="1404.23" y2="469.357" gradientUnits="userSpaceOnUse">
<stop stop-color="#021652"/>
<stop offset="0.3106" stop-color="#0056AD"/>
<stop offset="0.7223" stop-color="#38C4DD"/>
<stop offset="1" stop-color="#68EFD8"/>
</linearGradient>
<linearGradient id="paint15_linear" x1="1123.44" y1="-339.586" x2="1165.69" y2="772.866" gradientUnits="userSpaceOnUse">
<stop stop-color="#7E1B4C"/>
<stop offset="0.1471" stop-color="#74175D"/>
<stop offset="0.7257" stop-color="#4E069B"/>
<stop offset="1" stop-color="#3F00B4"/>
</linearGradient>
<clipPath id="clip0">
<rect width="1450" height="603" fill="white" transform="translate(-8)"/>
</clipPath>
</defs>
</svg>
