<svg width="43" height="43" viewBox="0 0 43 43" fill="none" xmlns="http://www.w3.org/2000/svg">
<path d="M21.5 43C33.3741 43 43 33.3741 43 21.5C43 9.62588 33.3741 0 21.5 0C9.62588 0 0 9.62588 0 21.5C0 33.3741 9.62588 43 21.5 43Z" fill="#4C77A0"/>
<path fill-rule="evenodd" clip-rule="evenodd" d="M20.4193 30.0398H21.9214C21.9214 30.0398 22.3743 29.9896 22.6065 29.7402C22.8194 29.5109 22.8129 29.0809 22.8129 29.0809C22.8129 29.0809 22.7835 27.0656 23.7188 26.7689C24.6404 26.4765 25.8244 28.7161 27.0792 29.5782C28.0281 30.2297 28.7491 30.0871 28.7491 30.0871L32.1045 30.0398C32.1045 30.0398 33.8596 29.9315 33.0269 28.5512C32.9588 28.4387 32.5424 27.5307 30.5329 25.6652C28.428 23.7123 28.7104 24.0284 31.2445 20.6507C32.7882 18.5939 33.4053 17.3376 33.2125 16.8001C33.0283 16.2876 31.8938 16.4231 31.8938 16.4231L28.1155 16.446C28.1155 16.446 27.8353 16.408 27.6282 16.532C27.4247 16.6539 27.2942 16.9377 27.2942 16.9377C27.2942 16.9377 26.6958 18.5287 25.8989 19.8832C24.2169 22.7398 23.5439 22.891 23.2687 22.7133C22.6295 22.2998 22.7893 21.0528 22.7893 20.1662C22.7893 17.3978 23.2092 16.2439 21.9716 15.9451C21.5609 15.8462 21.2585 15.7802 20.2086 15.7695C18.8605 15.7559 17.7196 15.7738 17.0739 16.0906C16.6439 16.3005 16.312 16.77 16.5149 16.7965C16.7643 16.8302 17.329 16.9491 17.6293 17.3569C18.0163 17.8844 18.0027 19.0669 18.0027 19.0669C18.0027 19.0669 18.2248 22.3256 17.4831 22.7298C16.9742 23.0078 16.2755 22.4409 14.7755 19.8495C14.0072 18.5222 13.4275 17.0545 13.4275 17.0545C13.4275 17.0545 13.3157 16.7807 13.1157 16.6338C12.8735 16.4561 12.5352 16.3994 12.5352 16.3994L8.94542 16.4231C8.94542 16.4231 8.40649 16.4374 8.20869 16.6725C8.03239 16.8803 8.19435 17.3118 8.19435 17.3118C8.19435 17.3118 11.0051 23.8872 14.1878 27.201C17.1061 30.2397 20.4193 30.0398 20.4193 30.0398Z" fill="white"/>
</svg>
