<svg width="141" height="141" viewBox="0 0 141 141" fill="none" xmlns="http://www.w3.org/2000/svg">
<path d="M70.5 141C109.436 141 141 109.436 141 70.5C141 31.5639 109.436 0 70.5 0C31.5639 0 0 31.5639 0 70.5C0 109.436 31.5639 141 70.5 141Z" fill="#896BAC"/>
<path d="M70.5 141C109.436 141 141 109.436 141 70.5C141 31.5639 109.436 0 70.5 0C31.5639 0 0 31.5639 0 70.5C0 109.436 31.5639 141 70.5 141Z" fill="url(#paint0_radial)"/>
<path d="M70.5 141C109.436 141 141 109.436 141 70.5C141 31.5639 109.436 0 70.5 0C31.5639 0 0 31.5639 0 70.5C0 109.436 31.5639 141 70.5 141Z" fill="url(#paint1_radial)"/>
<path d="M70.5 141C109.436 141 141 109.436 141 70.5C141 31.5639 109.436 0 70.5 0C31.5639 0 0 31.5639 0 70.5C0 109.436 31.5639 141 70.5 141Z" fill="url(#paint2_radial)"/>
<defs>
<radialGradient id="paint0_radial" cx="0" cy="0" r="1" gradientUnits="userSpaceOnUse" gradientTransform="translate(70.5 70.5) scale(70.5)">
<stop stop-color="#141B2F" stop-opacity="0"/>
<stop offset="0.3211" stop-color="#141B2F" stop-opacity="0.04"/>
<stop offset="0.5319" stop-color="#141B2F" stop-opacity="0.18"/>
<stop offset="0.84" stop-color="#141B2F" stop-opacity="0.43"/>
<stop offset="0.95" stop-color="#141B2F" stop-opacity="0.78"/>
<stop offset="1" stop-color="#141B2F"/>
</radialGradient>
<radialGradient id="paint1_radial" cx="0" cy="0" r="1" gradientUnits="userSpaceOnUse" gradientTransform="translate(93.1256 52.793) scale(97.454)">
<stop stop-color="#574C9B" stop-opacity="0"/>
<stop offset="0.44" stop-color="#574C9B" stop-opacity="0.38"/>
<stop offset="1" stop-color="#574C9B"/>
</radialGradient>
<radialGradient id="paint2_radial" cx="0" cy="0" r="1" gradientUnits="userSpaceOnUse" gradientTransform="translate(165.265 135.753) scale(202.692)">
<stop stop-color="#6EC6D9" stop-opacity="0"/>
<stop offset="0.58" stop-color="#6EC6D9" stop-opacity="0"/>
<stop offset="0.68" stop-color="#6EC6D9" stop-opacity="0"/>
<stop offset="0.73" stop-color="#6EC6D9" stop-opacity="0.01"/>
<stop offset="0.77" stop-color="#6EC6D9" stop-opacity="0.05"/>
<stop offset="0.81" stop-color="#6EC6D9" stop-opacity="0.12"/>
<stop offset="0.85" stop-color="#6EC6D9" stop-opacity="0.21"/>
<stop offset="0.88" stop-color="#6EC6D9" stop-opacity="0.34"/>
<stop offset="0.92" stop-color="#6EC6D9" stop-opacity="0.48"/>
<stop offset="0.95" stop-color="#6EC6D9" stop-opacity="0.66"/>
<stop offset="0.98" stop-color="#6EC6D9" stop-opacity="0.86"/>
<stop offset="1" stop-color="#6EC6D9"/>
</radialGradient>
</defs>
</svg>
