<svg width="131" height="131" viewBox="0 0 131 131" fill="none" xmlns="http://www.w3.org/2000/svg">
<path d="M65.5 131C101.7 131 131 101.7 131 65.5C131 29.3 101.7 0 65.5 0C29.3 0 0 29.3 0 65.5C0 101.7 29.3 131 65.5 131Z" fill="#6EC6D9"/>
<path d="M65.5 131C101.7 131 131 101.7 131 65.5C131 29.3 101.7 0 65.5 0C29.3 0 0 29.3 0 65.5C0 101.7 29.3 131 65.5 131Z" fill="url(#paint0_radial)"/>
<path d="M65.5 131C101.7 131 131 101.7 131 65.5C131 29.3 101.7 0 65.5 0C29.3 0 0 29.3 0 65.5C0 101.7 29.3 131 65.5 131Z" fill="url(#paint1_radial)"/>
<path d="M65.5 131C101.7 131 131 101.7 131 65.5C131 29.3 101.7 0 65.5 0C29.3 0 0 29.3 0 65.5C0 101.7 29.3 131 65.5 131Z" fill="url(#paint2_radial)"/>
<defs>
<radialGradient id="paint0_radial" cx="0" cy="0" r="1" gradientUnits="userSpaceOnUse" gradientTransform="translate(65.5005 65.501) scale(65.5)">
<stop stop-color="#141B2F" stop-opacity="0"/>
<stop offset="0.52" stop-color="#141B2F" stop-opacity="0.04"/>
<stop offset="0.71" stop-color="#141B2F" stop-opacity="0.18"/>
<stop offset="0.84" stop-color="#141B2F" stop-opacity="0.43"/>
<stop offset="0.95" stop-color="#141B2F" stop-opacity="0.78"/>
<stop offset="1" stop-color="#141B2F"/>
</radialGradient>
<radialGradient id="paint1_radial" cx="0" cy="0" r="1" gradientUnits="userSpaceOnUse" gradientTransform="translate(86.521 49.047) scale(90.54)">
<stop stop-color="#141B2F" stop-opacity="0"/>
<stop offset="0.44" stop-color="#141B2F" stop-opacity="0.38"/>
<stop offset="1" stop-color="#141B2F"/>
</radialGradient>
<radialGradient id="paint2_radial" cx="0" cy="0" r="1" gradientUnits="userSpaceOnUse" gradientTransform="translate(-29.7883 -11.2722) scale(192.36)">
<stop stop-color="#6EC6D9" stop-opacity="0"/>
<stop offset="0.58" stop-color="#6EC6D9" stop-opacity="0"/>
<stop offset="0.68" stop-color="#6EC6D9" stop-opacity="0"/>
<stop offset="0.73" stop-color="#6EC6D9" stop-opacity="0.01"/>
<stop offset="0.77" stop-color="#6EC6D9" stop-opacity="0.05"/>
<stop offset="0.81" stop-color="#6EC6D9" stop-opacity="0.12"/>
<stop offset="0.85" stop-color="#6EC6D9" stop-opacity="0.21"/>
<stop offset="0.88" stop-color="#6EC6D9" stop-opacity="0.34"/>
<stop offset="0.92" stop-color="#6EC6D9" stop-opacity="0.48"/>
<stop offset="0.95" stop-color="#6EC6D9" stop-opacity="0.66"/>
<stop offset="0.98" stop-color="#6EC6D9" stop-opacity="0.86"/>
<stop offset="1" stop-color="#6EC6D9"/>
</radialGradient>
</defs>
</svg>
