<svg width="38" height="38" viewBox="0 0 38 38" fill="none" xmlns="http://www.w3.org/2000/svg">
<path d="M37.4916 19.2167C37.4916 29.25 29.25 37.85 18.8583 37.85C8.46665 37.85 0.583313 29.25 0.583313 19.2167C0.583313 16.35 1.29998 13.4833 2.37498 10.975C3.44998 9.18334 4.52498 7.75001 5.95831 6.31668C9.18331 2.73334 13.8416 0.583344 19.2166 0.583344C29.25 0.583344 37.4916 8.82501 37.4916 19.2167Z" fill="url(#paint0_radial)"/>
<path d="M21.3667 5.59998L19.9333 10.975V11.3333V12.05L18.8583 15.9916L17.7833 12.4083L17.0667 10.6166L16.7083 9.54164L15.6333 5.59998H11.6917L10.975 7.03331L9.54167 12.4083L8.46667 15.9916L7.39167 12.7666L5.95833 6.31664C4.525 7.74997 3.45 9.18331 2.375 10.975L4.525 17.7833L5.95833 22.4416H10.2583L10.975 19.9333L13.4833 12.4083L13.8417 13.8416L14.9167 15.9916L15.9917 19.575L16.7083 22.4416H21.0083L24.5917 10.975L26.3833 5.59998H21.3667Z" fill="white"/>
<path d="M24.2333 17.425V22.4416H29.25V17.425H24.2333Z" fill="white"/>
<defs>
<radialGradient id="paint0_radial" cx="0" cy="0" r="1" gradientUnits="userSpaceOnUse" gradientTransform="translate(36.169 2.05968) scale(38.1385)">
<stop offset="0.327" stop-color="#A165A4"/>
<stop offset="0.4461" stop-color="#9963A2"/>
<stop offset="0.6307" stop-color="#835E9B"/>
<stop offset="0.8557" stop-color="#605690"/>
</radialGradient>
</defs>
</svg>
