<svg width="16" height="13" viewBox="0 0 16 13" fill="none" xmlns="http://www.w3.org/2000/svg">
<path fill-rule="evenodd" clip-rule="evenodd" d="M1 0H15C15.552 0 16 0.456 16 1.019V9.002C16.0008 9.13345 15.9755 9.26375 15.9255 9.38533C15.8755 9.5069 15.8018 9.61733 15.7088 9.71018C15.6157 9.80304 15.5051 9.87648 15.3835 9.92624C15.2618 9.97599 15.1314 10.0011 15 10H9L4.495 12.861C4.34399 12.9506 4.17188 12.9984 3.99631 12.9995C3.82073 13.0006 3.64802 12.955 3.49588 12.8674C3.34373 12.7798 3.21762 12.6533 3.13048 12.5008C3.04335 12.3484 2.99831 12.1756 3 12V9.997H1C0.868731 9.99833 0.738508 9.97353 0.61691 9.92406C0.495312 9.87459 0.384767 9.80143 0.291708 9.70884C0.19865 9.61625 0.124936 9.50607 0.0748559 9.38472C0.0247761 9.26337 -0.00066932 9.13327 4.05536e-07 9.002V1.02C-0.00131933 0.887363 0.0235003 0.755765 0.0730419 0.632721C0.122584 0.509677 0.195877 0.397596 0.288737 0.302879C0.381597 0.208162 0.492204 0.132664 0.614244 0.0806954C0.736283 0.0287272 0.867363 0.00130674 1 0ZM2 1.999V8H5V10L8 8H14V2L2 1.999Z" fill="#EDEDED"/>
</svg>
