<svg width="99" height="130" viewBox="0 0 99 130" fill="none" xmlns="http://www.w3.org/2000/svg">
<g clip-path="url(#clip0)">
<path d="M52.1977 107.845L97.4943 81.3614C98.4981 80.7248 99 80.0881 99 79.3242V71.048L97.4943 72.4486L96.1141 71.6846C96.2395 71.5573 96.365 71.3026 96.365 71.3026C96.2395 71.1753 95.7376 70.1567 95.7376 70.1567L63.7414 50.9304L53.5779 44.9461L49.5627 43.8002L3.13688 70.9206L3.26236 72.0666L2.0076 72.8305L0 71.8119V80.0881C0 80.7248 0.376426 81.2341 1.0038 81.616L46.0494 107.973C47.6806 108.991 50.4411 108.864 52.1977 107.845ZM70.6426 87.3457L50.1901 98.6777L48.4335 98.5504L14.0532 79.1968L4.51711 74.2311L49.1863 48.1293C49.5627 47.8746 50.1901 47.8746 50.5665 48.1293L94.1065 73.5945L70.6426 87.3457Z" fill="url(#paint0_linear)"/>
<path d="M52.1977 107.845L97.4943 81.3614C98.4981 80.7248 99 80.0881 99 79.3242V71.048L97.4943 72.4486L96.1141 71.6846C96.2395 71.5573 96.365 71.3026 96.365 71.3026C96.2395 71.1753 95.7376 70.1567 95.7376 70.1567L63.7414 50.9304L53.5779 44.9461L49.5627 43.8002L3.13688 70.9206L3.26236 72.0666L2.0076 72.8305L0 71.8119V80.0881C0 80.7248 0.376426 81.2341 1.0038 81.616L46.0494 107.973C47.6806 108.991 50.4411 108.864 52.1977 107.845ZM70.6426 87.3457L50.1901 98.6777L48.4335 98.5504L14.0532 79.1968L4.51711 74.2311L49.1863 48.1293C49.5627 47.8746 50.1901 47.8746 50.5665 48.1293L94.1065 73.5945L70.6426 87.3457Z" fill="url(#paint1_linear)"/>
<path opacity="0.6" d="M48.9354 108.737V98.6777H50.0646L70.5171 87.3457L94.1065 73.4672L93.3536 72.9579C94.1065 72.5759 98.2472 71.3026 99 70.9207V78.5602V79.1968C99 79.9608 98.4981 80.5974 97.4943 81.2341L52.1977 107.845C51.3194 108.355 50.0646 108.737 48.9354 108.737Z" fill="#0F054C"/>
<path d="M52.1973 99.4417L97.4939 72.9579C99.2506 71.9393 99.5015 70.284 97.9958 69.3927L52.8247 43.0362C51.319 42.1449 48.5586 42.2723 46.8019 43.2909L1.50533 69.7747C-0.251328 70.7933 -0.502279 72.4486 1.00342 73.3398L46.049 99.6964C47.6802 100.588 50.4407 100.46 52.1973 99.4417ZM49.6878 97.9138C49.3114 98.1684 48.684 98.1684 48.3076 97.9138L4.01483 72.0666C3.63841 71.8119 3.76388 71.5573 4.14031 71.3026L49.3114 44.9461C49.6878 44.6915 50.3152 44.6915 50.6916 44.9461L94.9844 70.9206C95.3608 71.1753 95.2354 71.4299 94.8589 71.6846L49.6878 97.9138Z" fill="url(#paint2_linear)"/>
<path d="M52.1973 99.4417L97.4939 72.9579C99.2506 71.9393 99.5015 70.284 97.9958 69.3927L52.8247 43.0362C51.319 42.1449 48.5586 42.2723 46.8019 43.2909L1.50533 69.7747C-0.251328 70.7933 -0.502279 72.4486 1.00342 73.3398L46.049 99.6964C47.6802 100.588 50.4407 100.46 52.1973 99.4417ZM49.6878 97.9138C49.3114 98.1684 48.684 98.1684 48.3076 97.9138L4.01483 72.0666C3.63841 71.8119 3.76388 71.5573 4.14031 71.3026L49.3114 44.9461C49.6878 44.6915 50.3152 44.6915 50.6916 44.9461L94.9844 70.9206C95.3608 71.1753 95.2354 71.4299 94.8589 71.6846L49.6878 97.9138Z" fill="url(#paint3_linear)"/>
<path d="M94.9848 70.284L50.692 44.3095C50.3156 44.0548 49.6882 44.1822 49.3118 44.3095L4.14068 70.666C3.76426 70.9207 3.76426 71.1753 3.88973 71.43C3.88973 71.3026 4.01521 71.3026 4.14068 71.1753L49.3118 44.8188C49.6882 44.5642 50.3156 44.5642 50.692 44.8188L94.9848 70.7933C95.1103 70.7933 95.1103 70.9207 95.1103 70.9207C95.2357 70.666 95.2357 70.4114 94.9848 70.284Z" fill="#42E8E0"/>
<path d="M97.4943 72.5759L52.1977 98.9324C50.4411 99.951 47.6806 100.078 46.1749 99.1871L1.0038 72.8306C0.376426 72.4486 6.09085e-07 72.0666 6.09085e-07 71.5573C-0.125475 72.1939 0.250951 72.8306 1.0038 73.3399L46.0494 99.6964C47.5551 100.588 50.3156 100.46 52.0722 99.4417L97.3688 72.9579C98.4981 72.3213 99 71.43 98.8745 70.666C98.8745 71.43 98.3726 72.0666 97.4943 72.5759Z" fill="#42E8E0"/>
<path d="M50.692 48.0019C50.3156 47.7473 49.6882 47.8746 49.3118 48.0019L6.27377 73.3398L4.14069 72.0666C3.76426 71.8119 3.88974 71.5573 4.26616 71.3026L49.4373 44.9461C49.8137 44.6915 50.4411 44.6915 50.8175 44.9461L95.1103 70.9207C95.4867 71.1753 95.3612 71.43 94.9848 71.6846L92.8517 72.9579L50.692 48.0019Z" fill="#251C72"/>
<path opacity="0.7" d="M94.8593 71.5573C95.2357 71.3026 95.3612 70.9206 94.9848 70.7933L50.692 44.6915C50.3156 44.4368 49.6882 44.5641 49.3118 44.6915L4.14069 71.048C3.76426 71.3026 3.63878 71.6846 4.01521 71.8119L48.308 97.7865C48.6844 98.0411 49.3118 97.9138 49.6882 97.7865L94.8593 71.5573Z" fill="#42E8E0"/>
<path d="M52.1977 93.4574L97.4943 66.9736C98.4981 66.3369 99 65.7003 99 64.9363V56.6601L97.4943 58.0607L96.1141 57.2968C96.2395 57.1695 96.365 56.9148 96.365 56.9148C96.2395 56.7875 95.7376 55.7689 95.7376 55.7689L63.7414 36.6699L53.5779 30.6856L49.5627 29.5397L3.13688 56.6601L3.26236 57.8061L2.0076 58.57L0 57.5514V65.8276C0 66.4643 0.376426 66.9736 1.0038 67.3555L46.0494 93.7121C47.6806 94.7307 50.4411 94.6033 52.1977 93.4574ZM70.6426 73.0852L50.1901 84.4173L48.4335 84.2899L14.0532 64.9363L4.51711 59.9706L49.1863 33.8688C49.5627 33.6141 50.1901 33.6141 50.5665 33.8688L94.1065 59.334L70.6426 73.0852Z" fill="url(#paint4_linear)"/>
<path d="M52.1977 93.4574L97.4943 66.9736C98.4981 66.3369 99 65.7003 99 64.9363V56.6601L97.4943 58.0607L96.1141 57.2968C96.2395 57.1695 96.365 56.9148 96.365 56.9148C96.2395 56.7875 95.7376 55.7689 95.7376 55.7689L63.7414 36.6699L53.5779 30.6856L49.5627 29.5397L3.13688 56.6601L3.26236 57.8061L2.0076 58.57L0 57.5514V65.8276C0 66.4643 0.376426 66.9736 1.0038 67.3555L46.0494 93.7121C47.6806 94.7307 50.4411 94.6033 52.1977 93.4574ZM70.6426 73.0852L50.1901 84.4173L48.4335 84.2899L14.0532 64.9363L4.51711 59.9706L49.1863 33.8688C49.5627 33.6141 50.1901 33.6141 50.5665 33.8688L94.1065 59.334L70.6426 73.0852Z" fill="url(#paint5_linear)"/>
<path opacity="0.6" d="M48.9354 94.3487V84.2899H50.0646L70.5171 72.9579L94.1065 59.0794L93.3536 58.5701C94.1065 58.1881 98.2472 56.9148 99 56.5328V64.1724V64.809C99 65.573 98.4981 66.2096 97.4943 66.8463L52.1977 93.4574C51.3194 94.0941 50.0646 94.3487 48.9354 94.3487Z" fill="#0F054C"/>
<path d="M52.1973 85.0539L97.4939 58.57C99.2506 57.5514 99.5015 55.8962 97.9958 55.0049L52.8247 28.6484C51.319 27.7571 48.5586 27.8844 46.8019 28.9031L1.50533 55.3869C-0.251328 56.4055 -0.502279 58.0607 1.00342 58.952L46.1745 85.3085C47.6802 86.3271 50.4407 86.1998 52.1973 85.0539ZM49.6878 83.526C49.3114 83.7806 48.684 83.7806 48.3076 83.526L4.01483 57.6788C3.63841 57.4241 3.76388 57.1695 4.14031 56.9148L49.3114 30.5583C49.6878 30.3036 50.3152 30.3036 50.6916 30.5583L94.9844 56.5328C95.3608 56.7875 95.2354 57.0421 94.8589 57.2968L49.6878 83.526Z" fill="url(#paint6_linear)"/>
<path d="M52.1973 85.0539L97.4939 58.57C99.2506 57.5514 99.5015 55.8962 97.9958 55.0049L52.8247 28.6484C51.319 27.7571 48.5586 27.8844 46.8019 28.9031L1.50533 55.3869C-0.251328 56.4055 -0.502279 58.0607 1.00342 58.952L46.1745 85.3085C47.6802 86.3271 50.4407 86.1998 52.1973 85.0539ZM49.6878 83.526C49.3114 83.7806 48.684 83.7806 48.3076 83.526L4.01483 57.6788C3.63841 57.4241 3.76388 57.1695 4.14031 56.9148L49.3114 30.5583C49.6878 30.3036 50.3152 30.3036 50.6916 30.5583L94.9844 56.5328C95.3608 56.7875 95.2354 57.0421 94.8589 57.2968L49.6878 83.526Z" fill="url(#paint7_linear)"/>
<path d="M94.9848 55.8962L50.692 29.9217C50.3156 29.667 49.6882 29.7944 49.3118 29.9217L4.14068 56.2782C3.76426 56.6602 3.76426 56.9148 3.88973 57.0422C3.88973 56.9148 4.01521 56.9148 4.14068 56.7875L49.3118 30.431C49.6882 30.1763 50.3156 30.1763 50.692 30.431L94.9848 56.4055C95.1103 56.4055 95.1103 56.5329 95.1103 56.5329C95.2357 56.2782 95.2357 56.0235 94.9848 55.8962Z" fill="#42E8E0"/>
<path d="M97.4943 58.1881L52.1977 84.6719C50.4411 85.6905 47.6806 85.8179 46.1749 84.9266L1.0038 58.4427C0.376427 58.0608 6.10948e-07 57.5515 6.10948e-07 57.1695C-0.125475 57.8061 0.250951 58.4427 1.0038 58.952L46.1749 85.3086C47.6806 86.1998 50.4411 86.0725 52.1977 85.0539L97.4943 58.5701C98.6236 57.9334 99.1255 57.0422 99 56.2782C98.8745 57.0422 98.3726 57.6788 97.4943 58.1881Z" fill="#42E8E0"/>
<path d="M50.692 33.7415C50.3156 33.4868 49.6882 33.6141 49.3118 33.7415L6.27377 58.952L4.14069 57.6788C3.76426 57.4241 3.88974 57.1695 4.26616 56.9148L49.4373 30.5583C49.8137 30.3036 50.4411 30.3036 50.8175 30.5583L95.1103 56.5328C95.4867 56.7875 95.3612 57.0421 94.9848 57.2968L92.8517 58.57L50.692 33.7415Z" fill="#251C72"/>
<path opacity="0.7" d="M94.8593 57.1695C95.2357 56.9148 95.3612 56.5328 94.9848 56.4055L50.692 30.431C50.3156 30.1763 49.6882 30.3036 49.3118 30.431L4.14069 56.7875C3.76426 57.0421 3.63878 57.4241 4.01521 57.5514L48.308 83.526C48.6844 83.7806 49.3118 83.6533 49.6882 83.526L94.8593 57.1695Z" fill="#42E8E0"/>
<path d="M52.1977 79.1969L97.4943 52.7131C98.4981 52.0764 99 51.4398 99 50.6758V42.3996L97.4943 43.8002L96.1141 43.0363C96.2395 42.909 96.365 42.6543 96.365 42.6543C96.2395 42.527 95.7376 41.5084 95.7376 41.5084L63.7414 22.4094L53.5779 16.4251L49.5627 15.2792L3.13688 42.2723L3.26236 43.4183L2.0076 44.1822L0 43.1636V51.4398C0 52.0764 0.376426 52.5857 1.0038 52.9677L46.0494 79.3242C47.6806 80.3428 50.4411 80.2155 52.1977 79.1969ZM70.6426 58.6974L50.0646 70.0294H48.308L14.0532 50.5485L4.51711 45.5828L49.1863 19.4809C49.5627 19.2263 50.1901 19.2263 50.5665 19.4809L94.1065 44.9462L70.6426 58.6974Z" fill="url(#paint8_linear)"/>
<path d="M52.1977 79.1969L97.4943 52.7131C98.4981 52.0764 99 51.4398 99 50.6758V42.3996L97.4943 43.8002L96.1141 43.0363C96.2395 42.909 96.365 42.6543 96.365 42.6543C96.2395 42.527 95.7376 41.5084 95.7376 41.5084L63.7414 22.4094L53.5779 16.4251L49.5627 15.2792L3.13688 42.2723L3.26236 43.4183L2.0076 44.1822L0 43.1636V51.4398C0 52.0764 0.376426 52.5857 1.0038 52.9677L46.0494 79.3242C47.6806 80.3428 50.4411 80.2155 52.1977 79.1969ZM70.6426 58.6974L50.0646 70.0294H48.308L14.0532 50.5485L4.51711 45.5828L49.1863 19.4809C49.5627 19.2263 50.1901 19.2263 50.5665 19.4809L94.1065 44.9462L70.6426 58.6974Z" fill="url(#paint9_linear)"/>
<path opacity="0.6" d="M48.9354 80.0882V70.0294H50.0646L70.5171 58.6974L94.1065 44.8189L93.3536 44.3096C94.1065 43.9276 98.2472 42.6543 99 42.2723V49.9119V50.5485C99 51.3125 98.4981 51.9491 97.4943 52.5858L52.1977 79.1969C51.3194 79.7062 50.0646 79.9609 48.9354 80.0882Z" fill="#0F054C"/>
<path d="M52.1973 70.7934L97.4939 44.3095C99.2506 43.2909 99.5015 41.6357 97.9958 40.7444L52.8247 14.3879C51.319 13.4966 48.5586 13.6239 46.8019 14.6426L1.50533 40.9991C-0.251328 42.0177 -0.502279 43.6729 1.00342 44.5642L46.049 70.9207C47.6802 71.9393 50.4407 71.812 52.1973 70.7934ZM49.6878 69.2655C49.3114 69.5201 48.684 69.5201 48.3076 69.2655L4.01483 43.2909C3.63841 43.0363 3.76388 42.7816 4.14031 42.527L49.3114 16.1705C49.6878 15.9158 50.3152 15.9158 50.6916 16.1705L94.9844 42.0177C95.3608 42.2723 95.2354 42.527 94.8589 42.7816L49.6878 69.2655Z" fill="url(#paint10_linear)"/>
<path d="M52.1973 70.7934L97.4939 44.3095C99.2506 43.2909 99.5015 41.6357 97.9958 40.7444L52.8247 14.3879C51.319 13.4966 48.5586 13.6239 46.8019 14.6426L1.50533 40.9991C-0.251328 42.0177 -0.502279 43.6729 1.00342 44.5642L46.049 70.9207C47.6802 71.9393 50.4407 71.812 52.1973 70.7934ZM49.6878 69.2655C49.3114 69.5201 48.684 69.5201 48.3076 69.2655L4.01483 43.2909C3.63841 43.0363 3.76388 42.7816 4.14031 42.527L49.3114 16.1705C49.6878 15.9158 50.3152 15.9158 50.6916 16.1705L94.9844 42.0177C95.3608 42.2723 95.2354 42.527 94.8589 42.7816L49.6878 69.2655Z" fill="url(#paint11_linear)"/>
<path d="M94.9848 41.5084L50.692 15.6612C50.3156 15.4065 49.6882 15.5339 49.3118 15.6612L4.14068 42.0177C3.76426 42.2724 3.76426 42.527 3.88973 42.7817C3.88973 42.6543 4.01521 42.6543 4.14068 42.527L49.3118 16.1705C49.6882 15.9158 50.3156 15.9158 50.692 16.1705L94.9848 42.0177C95.1103 42.0177 95.1103 42.145 95.1103 42.145C95.2357 41.8904 95.2357 41.763 94.9848 41.5084Z" fill="#42E8E0"/>
<path d="M97.4943 43.8003L52.1977 70.2841C50.4411 71.3027 47.6806 71.4301 46.1749 70.5388L1.0038 44.1822C0.376426 43.8003 6.09085e-07 43.291 6.09085e-07 42.909C-0.125475 43.5456 0.250951 44.1822 1.0038 44.6915L46.0494 71.0481C47.5551 71.9394 50.3156 71.812 52.0722 70.7934L97.3688 44.3096C98.4981 43.6729 99 42.7817 98.8745 42.0177C98.8745 42.6543 98.3726 43.291 97.4943 43.8003Z" fill="#42E8E0"/>
<path d="M50.692 19.3536C50.3156 19.099 49.6882 19.2263 49.3118 19.3536L6.27377 44.6915L4.14069 43.4183C3.76426 43.1636 3.88974 42.909 4.26616 42.6543L49.4373 16.2978C49.8137 16.0431 50.4411 16.0431 50.8175 16.2978L94.9848 42.0177C95.3612 42.2723 95.2357 42.527 94.8593 42.7816L92.7262 44.0549L50.692 19.3536Z" fill="#251C72"/>
<path opacity="0.7" d="M94.8593 42.7816C95.2357 42.527 95.3612 42.145 94.9848 42.0177L50.692 16.0431C50.3156 15.7885 49.6882 15.9158 49.3118 16.0431L4.14069 42.3997C3.76426 42.7816 3.63878 43.1636 4.01521 43.2909L48.308 69.2655C48.6844 69.5201 49.3118 69.3928 49.6882 69.2655L94.8593 42.7816Z" fill="#42E8E0"/>
<path d="M49.5627 0.763916L3.13688 27.8844L3.26236 29.0303L2.0076 29.7943L0 28.903V37.1792C0 37.8158 0.376426 38.3251 1.0038 38.7071L46.0494 65.0636C47.5551 65.9549 50.3156 65.8276 52.0722 64.809L97.3688 38.3251C98.3726 37.6885 98.8745 37.0519 98.8745 36.2879V28.0117L97.3688 29.4123L95.9886 28.6483C96.1141 28.521 96.2395 28.2664 96.2395 28.2664C96.1141 28.139 95.6122 27.1204 95.6122 27.1204L63.616 8.02151L53.4525 2.03718" fill="url(#paint12_linear)"/>
<path d="M70.6426 44.4369L50.1901 55.7689L48.4335 55.6416L14.0532 36.1607L4.51711 31.195L49.3118 5.09309C49.6882 4.83844 50.3156 4.83844 50.692 5.09309L94.2319 30.5583L70.6426 44.4369Z" fill="url(#paint13_linear)"/>
<path d="M49.5627 0.763916L3.13688 27.8844L3.26236 29.0303L2.0076 29.7943L0 28.903V37.1792C0 37.8158 0.376426 38.3251 1.0038 38.7071L46.0494 65.0636C47.5551 65.9549 50.3156 65.8276 52.0722 64.809L97.3688 38.3251C98.3726 37.6885 98.8745 37.0519 98.8745 36.2879V28.0117L97.3688 29.4123L95.9886 28.6483C96.1141 28.521 96.2395 28.2664 96.2395 28.2664C96.1141 28.139 95.6122 27.1204 95.6122 27.1204L63.616 8.02151L53.4525 2.03718" fill="url(#paint14_linear)"/>
<path d="M70.6426 44.4369L50.1901 55.7689L48.4335 55.6416L14.0532 36.1607L4.51711 31.195L49.3118 5.09309C49.6882 4.83844 50.3156 4.83844 50.692 5.09309L94.2319 30.5583L70.6426 44.4369Z" fill="url(#paint15_linear)"/>
<path opacity="0.6" d="M48.9354 65.7003V55.6415H50.0646L70.5171 44.3095L94.2319 30.5582L93.4791 30.0489C94.2319 29.667 98.3726 28.3937 99.1255 28.0117V35.6513V36.2879C99.1255 37.0519 98.6236 37.6885 97.6198 38.3251L52.1977 64.809C51.3194 65.4456 50.0646 65.7003 48.9354 65.7003Z" fill="#0F054C"/>
<path d="M46.8023 0.254652L1.5057 26.7385C-0.25095 27.7571 -0.501901 29.4123 1.0038 30.3036L46.0494 56.6601C47.5551 57.5514 50.3156 57.4241 52.0722 56.4055L97.3688 29.9216C99.1255 28.903 99.3764 27.2478 97.8707 26.3565L52.8251 0" fill="url(#paint16_linear)"/>
<path d="M50.692 1.78259L94.9848 27.7571C95.3612 28.0118 95.2357 28.2664 94.8593 28.5211L49.6882 54.8776C49.3118 55.1322 48.6844 55.1322 48.308 54.8776L4.01521 29.0304C3.63878 28.7757 3.76426 28.5211 4.14068 28.2664L49.3118 1.90992" fill="url(#paint17_linear)"/>
<path d="M46.8023 0.254652L1.5057 26.7385C-0.25095 27.7571 -0.501901 29.4123 1.0038 30.3036L46.0494 56.6601C47.5551 57.5514 50.3156 57.4241 52.0722 56.4055L97.3688 29.9216C99.1255 28.903 99.3764 27.2478 97.8707 26.3565L52.8251 0" fill="url(#paint18_linear)"/>
<path d="M50.692 1.78259L94.9848 27.7571C95.3612 28.0118 95.2357 28.2664 94.8593 28.5211L49.6882 54.8776C49.3118 55.1322 48.6844 55.1322 48.308 54.8776L4.01521 29.0304C3.63878 28.7757 3.76426 28.5211 4.14068 28.2664L49.3118 1.90992" fill="url(#paint19_linear)"/>
<path d="M50.692 1.78262L94.9848 27.7572C95.1103 27.7572 95.1103 27.8845 95.1103 27.8845C95.2357 27.6298 95.2357 27.5025 94.9848 27.2479L50.692 1.27332" fill="#42E8E0"/>
<path d="M49.3118 1.40063L4.14068 27.7571C3.76426 27.8845 3.76426 28.2664 3.88973 28.3938C3.88973 28.2664 4.01521 28.2665 4.14068 28.1391L49.3118 1.78261" fill="#42E8E0"/>
<path d="M97.4943 29.5397L52.1977 56.0235C50.4411 57.0421 47.6806 57.1694 46.1749 56.2781L1.0038 29.7943C0.376426 29.4123 6.09085e-07 28.903 6.09085e-07 28.521C-0.125475 29.1577 0.250951 29.7943 1.0038 30.3036L46.0494 56.6601C47.5551 57.5514 50.3156 57.4241 52.0722 56.4055L97.3688 29.9216C98.4981 29.285 99 28.3937 98.8745 27.6298C98.8745 28.3937 98.3726 29.0303 97.4943 29.5397Z" fill="#42E8E0"/>
<path d="M50.692 1.78259L94.9848 27.7571C95.3612 28.0118 95.2357 28.2664 94.8593 28.5211L92.7262 29.7943L50.692 5.09307C50.3156 4.83842 49.6882 4.96575 49.3118 5.09307L6.27376 30.3037L4.14069 29.0304C3.76426 28.7757 3.88973 28.5211 4.26616 28.2664L49.4373 1.90992" fill="#251C72"/>
<path opacity="0.7" d="M49.3118 1.78259L4.14068 28.1391C3.76426 28.3938 3.63878 28.7757 4.01521 28.9031L48.308 54.8776C48.6844 55.1322 49.3118 55.0049 49.6882 54.8776L94.8593 28.5211C95.2357 28.2664 95.3612 27.8845 94.9848 27.7571L50.692 1.78259" fill="#42E8E0"/>
<path d="M89.0874 39.3438C89.0874 39.8531 88.711 40.3624 88.3346 40.617C87.9582 40.8717 87.5817 40.617 87.5817 40.2351C87.5817 39.7258 87.9582 39.2165 88.3346 38.9618C88.711 38.7071 89.0874 38.8345 89.0874 39.3438Z" fill="#42E8E0"/>
<path d="M91.5969 37.8159C91.5969 38.3253 91.2205 38.8346 90.8441 39.0892C90.4677 39.3439 90.0912 39.0892 90.0912 38.7072C90.0912 38.3252 90.4677 37.6886 90.8441 37.434C91.346 37.1793 91.5969 37.3066 91.5969 37.8159Z" fill="#42E8E0"/>
<path d="M94.2319 36.288C94.2319 36.7973 93.8555 37.3066 93.4791 37.5613C93.1027 37.8159 92.7262 37.5613 92.7262 37.1793C92.7262 36.67 93.1027 36.1607 93.4791 35.906C93.8555 35.6514 94.2319 35.7787 94.2319 36.288Z" fill="#42E8E0"/>
<path d="M89.0874 53.9862C89.0874 54.4955 88.711 55.0048 88.3346 55.2595C87.9582 55.5141 87.5817 55.2595 87.5817 54.8775C87.5817 54.4955 87.9582 53.8589 88.3346 53.6043C88.711 53.3496 89.0874 53.4769 89.0874 53.9862Z" fill="#42E8E0"/>
<path d="M91.5969 52.4584C91.5969 52.9677 91.2205 53.477 90.8441 53.7317C90.4677 53.9863 90.0912 53.7317 90.0912 53.3497C90.0912 52.8404 90.4677 52.3311 90.8441 52.0764C91.346 51.8218 91.5969 51.9491 91.5969 52.4584Z" fill="#42E8E0"/>
<path d="M94.2319 50.9304C94.2319 51.4398 93.8555 51.9491 93.4791 52.2037C93.1027 52.4584 92.7262 52.2037 92.7262 51.8217C92.7262 51.3124 93.1027 50.8031 93.4791 50.5485C93.8555 50.2938 94.2319 50.4211 94.2319 50.9304Z" fill="#42E8E0"/>
<path d="M89.0874 82.2528C89.0874 82.7621 88.711 83.2714 88.3346 83.526C87.9582 83.7807 87.5817 83.526 87.5817 83.1441C87.5817 82.6348 87.9582 82.1255 88.3346 81.8708C88.711 81.4888 89.0874 81.7435 89.0874 82.2528Z" fill="#706EC4"/>
<path d="M91.5969 80.7248C91.5969 81.2341 91.2205 81.7434 90.8441 81.9981C90.4677 82.2527 90.0912 81.9981 90.0912 81.6161C90.0912 81.1068 90.4677 80.5975 90.8441 80.3428C91.346 79.9609 91.5969 80.2155 91.5969 80.7248Z" fill="#706EC4"/>
<path d="M94.2319 79.1969C94.2319 79.7062 93.8555 80.2155 93.4791 80.4702C93.1027 80.7248 92.7262 80.4702 92.7262 80.0882C92.7262 79.5789 93.1027 79.0696 93.4791 78.8149C93.8555 78.5603 94.2319 78.6876 94.2319 79.1969Z" fill="#706EC4"/>
</g>
<defs>
<linearGradient id="paint0_linear" x1="41.0821" y1="60.9308" x2="64.5812" y2="101.135" gradientUnits="userSpaceOnUse">
<stop stop-color="#BCBEFF"/>
<stop offset="0.1659" stop-color="#B6B8FC"/>
<stop offset="0.3956" stop-color="#A4A8F5"/>
<stop offset="0.6625" stop-color="#868DEA"/>
<stop offset="0.9554" stop-color="#5E67DA"/>
<stop offset="1" stop-color="#5761D7"/>
</linearGradient>
<linearGradient id="paint1_linear" x1="41.0821" y1="60.9308" x2="64.5812" y2="101.135" gradientUnits="userSpaceOnUse">
<stop stop-color="#706EC4"/>
<stop offset="0.0222208" stop-color="#6D6BC2"/>
<stop offset="0.2509" stop-color="#5651AC"/>
<stop offset="0.4865" stop-color="#463F9D"/>
<stop offset="0.7314" stop-color="#3C3494"/>
<stop offset="1" stop-color="#393091"/>
</linearGradient>
<linearGradient id="paint2_linear" x1="36.8537" y1="49.0506" x2="62.7255" y2="93.3142" gradientUnits="userSpaceOnUse">
<stop stop-color="#BCBEFF"/>
<stop offset="0.1659" stop-color="#B6B8FC"/>
<stop offset="0.3956" stop-color="#A4A8F5"/>
<stop offset="0.6625" stop-color="#868DEA"/>
<stop offset="0.9554" stop-color="#5E67DA"/>
<stop offset="1" stop-color="#5761D7"/>
</linearGradient>
<linearGradient id="paint3_linear" x1="33.3579" y1="42.8918" x2="80.0346" y2="122.75" gradientUnits="userSpaceOnUse">
<stop stop-color="#706EC4"/>
<stop offset="0.0222208" stop-color="#6D6BC2"/>
<stop offset="0.2509" stop-color="#5651AC"/>
<stop offset="0.4865" stop-color="#463F9D"/>
<stop offset="0.7314" stop-color="#3C3494"/>
<stop offset="1" stop-color="#393091"/>
</linearGradient>
<linearGradient id="paint4_linear" x1="41.0823" y1="46.5984" x2="64.5815" y2="86.8028" gradientUnits="userSpaceOnUse">
<stop stop-color="#BCBEFF"/>
<stop offset="0.1659" stop-color="#B6B8FC"/>
<stop offset="0.3956" stop-color="#A4A8F5"/>
<stop offset="0.6625" stop-color="#868DEA"/>
<stop offset="0.9554" stop-color="#5E67DA"/>
<stop offset="1" stop-color="#5761D7"/>
</linearGradient>
<linearGradient id="paint5_linear" x1="41.0823" y1="46.5984" x2="64.5815" y2="86.8028" gradientUnits="userSpaceOnUse">
<stop stop-color="#706EC4"/>
<stop offset="0.0222208" stop-color="#6D6BC2"/>
<stop offset="0.2509" stop-color="#5651AC"/>
<stop offset="0.4865" stop-color="#463F9D"/>
<stop offset="0.7314" stop-color="#3C3494"/>
<stop offset="1" stop-color="#393091"/>
</linearGradient>
<linearGradient id="paint6_linear" x1="36.854" y1="34.7182" x2="62.7257" y2="78.9818" gradientUnits="userSpaceOnUse">
<stop stop-color="#BCBEFF"/>
<stop offset="0.1659" stop-color="#B6B8FC"/>
<stop offset="0.3956" stop-color="#A4A8F5"/>
<stop offset="0.6625" stop-color="#868DEA"/>
<stop offset="0.9554" stop-color="#5E67DA"/>
<stop offset="1" stop-color="#5761D7"/>
</linearGradient>
<linearGradient id="paint7_linear" x1="33.3581" y1="28.5594" x2="80.0348" y2="108.418" gradientUnits="userSpaceOnUse">
<stop stop-color="#706EC4"/>
<stop offset="0.0222208" stop-color="#6D6BC2"/>
<stop offset="0.2509" stop-color="#5651AC"/>
<stop offset="0.4865" stop-color="#463F9D"/>
<stop offset="0.7314" stop-color="#3C3494"/>
<stop offset="1" stop-color="#393091"/>
</linearGradient>
<linearGradient id="paint8_linear" x1="41.0821" y1="32.266" x2="64.5813" y2="72.4705" gradientUnits="userSpaceOnUse">
<stop stop-color="#BCBEFF"/>
<stop offset="0.1659" stop-color="#B6B8FC"/>
<stop offset="0.3956" stop-color="#A4A8F5"/>
<stop offset="0.6625" stop-color="#868DEA"/>
<stop offset="0.9554" stop-color="#5E67DA"/>
<stop offset="1" stop-color="#5761D7"/>
</linearGradient>
<linearGradient id="paint9_linear" x1="41.0821" y1="32.266" x2="64.5813" y2="72.4705" gradientUnits="userSpaceOnUse">
<stop stop-color="#706EC4"/>
<stop offset="0.0222208" stop-color="#6D6BC2"/>
<stop offset="0.2509" stop-color="#5651AC"/>
<stop offset="0.4865" stop-color="#463F9D"/>
<stop offset="0.7314" stop-color="#3C3494"/>
<stop offset="1" stop-color="#393091"/>
</linearGradient>
<linearGradient id="paint10_linear" x1="36.8539" y1="20.3859" x2="62.7255" y2="64.6494" gradientUnits="userSpaceOnUse">
<stop stop-color="#BCBEFF"/>
<stop offset="0.1659" stop-color="#B6B8FC"/>
<stop offset="0.3956" stop-color="#A4A8F5"/>
<stop offset="0.6625" stop-color="#868DEA"/>
<stop offset="0.9554" stop-color="#5E67DA"/>
<stop offset="1" stop-color="#5761D7"/>
</linearGradient>
<linearGradient id="paint11_linear" x1="33.358" y1="14.2272" x2="80.0346" y2="94.0856" gradientUnits="userSpaceOnUse">
<stop stop-color="#706EC4"/>
<stop offset="0.0222208" stop-color="#6D6BC2"/>
<stop offset="0.2509" stop-color="#5651AC"/>
<stop offset="0.4865" stop-color="#463F9D"/>
<stop offset="0.7314" stop-color="#3C3494"/>
<stop offset="1" stop-color="#393091"/>
</linearGradient>
<linearGradient id="paint12_linear" x1="19.4896" y1="33.2651" x2="99.7823" y2="33.2651" gradientUnits="userSpaceOnUse">
<stop stop-color="#BCBEFF"/>
<stop offset="0.1659" stop-color="#B6B8FC"/>
<stop offset="0.3956" stop-color="#A4A8F5"/>
<stop offset="0.6625" stop-color="#868DEA"/>
<stop offset="0.9554" stop-color="#5E67DA"/>
<stop offset="1" stop-color="#5761D7"/>
</linearGradient>
<linearGradient id="paint13_linear" x1="19.4896" y1="33.2651" x2="99.7823" y2="33.2651" gradientUnits="userSpaceOnUse">
<stop stop-color="#BCBEFF"/>
<stop offset="0.1659" stop-color="#B6B8FC"/>
<stop offset="0.3956" stop-color="#A4A8F5"/>
<stop offset="0.6625" stop-color="#868DEA"/>
<stop offset="0.9554" stop-color="#5E67DA"/>
<stop offset="1" stop-color="#5761D7"/>
</linearGradient>
<linearGradient id="paint14_linear" x1="19.4896" y1="33.2651" x2="99.7823" y2="33.2651" gradientUnits="userSpaceOnUse">
<stop stop-color="#706EC4"/>
<stop offset="0.0222208" stop-color="#6D6BC2"/>
<stop offset="0.2509" stop-color="#5651AC"/>
<stop offset="0.4865" stop-color="#463F9D"/>
<stop offset="0.7314" stop-color="#3C3494"/>
<stop offset="1" stop-color="#393091"/>
</linearGradient>
<linearGradient id="paint15_linear" x1="19.4896" y1="33.2651" x2="99.7823" y2="33.2651" gradientUnits="userSpaceOnUse">
<stop stop-color="#706EC4"/>
<stop offset="0.0222208" stop-color="#6D6BC2"/>
<stop offset="0.2509" stop-color="#5651AC"/>
<stop offset="0.4865" stop-color="#463F9D"/>
<stop offset="0.7314" stop-color="#3C3494"/>
<stop offset="1" stop-color="#393091"/>
</linearGradient>
<linearGradient id="paint16_linear" x1="0.00343196" y1="28.6583" x2="99.0159" y2="28.6583" gradientUnits="userSpaceOnUse">
<stop stop-color="#BCBEFF"/>
<stop offset="0.1659" stop-color="#B6B8FC"/>
<stop offset="0.3956" stop-color="#A4A8F5"/>
<stop offset="0.6625" stop-color="#868DEA"/>
<stop offset="0.9554" stop-color="#5E67DA"/>
<stop offset="1" stop-color="#5761D7"/>
</linearGradient>
<linearGradient id="paint17_linear" x1="3.78935" y1="28.4197" x2="95.2301" y2="28.4197" gradientUnits="userSpaceOnUse">
<stop stop-color="#BCBEFF"/>
<stop offset="0.1659" stop-color="#B6B8FC"/>
<stop offset="0.3956" stop-color="#A4A8F5"/>
<stop offset="0.6625" stop-color="#868DEA"/>
<stop offset="0.9554" stop-color="#5E67DA"/>
<stop offset="1" stop-color="#5761D7"/>
</linearGradient>
<linearGradient id="paint18_linear" x1="-13.6718" y1="28.6583" x2="164.963" y2="28.6583" gradientUnits="userSpaceOnUse">
<stop stop-color="#706EC4"/>
<stop offset="0.0222208" stop-color="#6D6BC2"/>
<stop offset="0.2509" stop-color="#5651AC"/>
<stop offset="0.4865" stop-color="#463F9D"/>
<stop offset="0.7314" stop-color="#3C3494"/>
<stop offset="1" stop-color="#393091"/>
</linearGradient>
<linearGradient id="paint19_linear" x1="-8.83999" y1="28.4197" x2="156.134" y2="28.4197" gradientUnits="userSpaceOnUse">
<stop stop-color="#706EC4"/>
<stop offset="0.0222208" stop-color="#6D6BC2"/>
<stop offset="0.2509" stop-color="#5651AC"/>
<stop offset="0.4865" stop-color="#463F9D"/>
<stop offset="0.7314" stop-color="#3C3494"/>
<stop offset="1" stop-color="#393091"/>
</linearGradient>
<clipPath id="clip0">
<rect width="99" height="130" fill="white"/>
</clipPath>
</defs>
</svg>
