<svg width="150" height="131" viewBox="0 0 150 131" fill="none" xmlns="http://www.w3.org/2000/svg">
<g clip-path="url(#clip0)">
<path d="M68.6609 48.9241C68.279 48.9241 67.8971 48.7709 67.5153 48.5413L59.4959 43.8709L59.6487 43.6412L67.668 48.3116C68.279 48.6944 68.8136 48.6944 69.2719 48.4647C69.7301 48.235 69.9593 47.6991 69.9593 47.01V45.0959C69.9593 44.3303 70.2647 43.7178 70.723 43.4115C71.2576 43.1053 71.8686 43.1818 72.556 43.5646L74.2362 44.56L74.0835 44.7896L72.4032 43.7943C71.7922 43.4115 71.2576 43.4115 70.7994 43.6412C70.3411 43.8709 70.112 44.4068 70.112 45.0959V47.01C70.112 47.7756 69.8065 48.3881 69.3483 48.6944C69.1191 48.8475 68.89 48.9241 68.6609 48.9241Z" fill="#42E8E0"/>
<path d="M65.5295 50.7616C65.1477 50.7616 64.7658 50.6085 64.3839 50.3788L56.3646 45.7084L56.5173 45.4787L64.5367 50.1491C65.1476 50.5319 65.6823 50.5319 66.1405 50.3022C66.5988 50.0725 66.8279 49.5366 66.8279 48.8475V46.9334C66.8279 46.1678 67.1334 45.5553 67.5916 45.249C68.1263 44.9428 68.7373 45.0193 69.4246 45.4022L71.1049 46.3975L70.9521 46.6272L69.2719 45.6318C68.6609 45.249 68.1263 45.249 67.668 45.4787C67.2098 45.7084 66.9806 46.2444 66.9806 46.9334V48.8475C66.9806 49.6131 66.6751 50.2257 66.2169 50.5319C66.0641 50.685 65.835 50.7616 65.5295 50.7616Z" fill="#42E8E0"/>
<path d="M62.3982 52.5226C62.0163 52.5226 61.6344 52.3695 61.2525 52.1398L53.2332 47.4694L53.3859 47.2397L61.4053 51.9101C62.0163 52.2929 62.5509 52.2929 63.0092 52.0632C63.4674 51.8335 63.6965 51.2976 63.6965 50.6085V48.6944C63.6965 47.9288 64.002 47.3163 64.4603 47.01C64.9949 46.7038 65.6059 46.7803 66.2933 47.1631L67.9735 48.1585L67.8208 48.3882L66.1405 47.3928C65.5295 47.01 64.9949 47.01 64.5366 47.2397C64.0784 47.4694 63.8493 48.0053 63.8493 48.6944V50.6085C63.8493 51.3741 63.5438 51.9866 63.0855 52.2929C62.9328 52.446 62.7036 52.5226 62.3982 52.5226Z" fill="#42E8E0"/>
<path d="M59.2668 54.3601C58.8849 54.3601 58.5031 54.207 58.1212 53.9773L50.1018 49.3069L50.2546 49.0772L58.2739 53.7476C58.8849 54.1304 59.4196 54.1304 59.8778 53.9007C60.3361 53.671 60.5652 53.1351 60.5652 52.446V50.5319C60.5652 49.7663 60.8707 49.1538 61.3289 48.8475C61.8635 48.5413 62.4745 48.6179 63.1619 49.0007L64.8422 49.996L64.6894 50.2257L63.0092 49.2304C62.3982 48.8475 61.8635 48.8475 61.4053 49.0772C60.9471 49.3069 60.7179 49.8429 60.7179 50.5319V52.446C60.7179 53.2117 60.4124 53.8242 59.9542 54.1304C59.8014 54.2835 59.5723 54.3601 59.2668 54.3601Z" fill="#42E8E0"/>
<path d="M56.2118 56.121C55.8299 56.121 55.4481 55.9678 55.0662 55.7382L47.0468 51.0678L47.1996 50.8381L55.219 55.5085C55.8299 55.8913 56.3646 55.8913 56.8228 55.6616C57.2811 55.4319 57.5102 54.896 57.5102 54.2069V52.2928C57.5102 51.5272 57.8157 50.9147 58.2739 50.6084C58.8086 50.3022 59.4196 50.3787 60.1069 50.7615L61.7872 51.7569L61.6344 51.9865L59.9542 50.9912C59.3432 50.6084 58.8086 50.6084 58.3503 50.8381C57.8921 51.0678 57.6629 51.6037 57.6629 52.2928V54.2069C57.6629 54.9725 57.3574 55.585 56.8992 55.8913C56.6701 56.0444 56.4409 56.121 56.2118 56.121Z" fill="#42E8E0"/>
<path d="M53.0804 57.9585C52.6986 57.9585 52.3167 57.8054 51.9348 57.5757L43.9155 52.9053L44.0682 52.6756L52.0876 57.346C52.6986 57.7288 53.2332 57.7288 53.6914 57.4991C54.1497 57.2694 54.3788 56.7335 54.3788 56.0444V54.1303C54.3788 53.3647 54.6843 52.7522 55.1425 52.4459C55.6772 52.1397 56.2882 52.2162 56.9755 52.5991L58.6558 53.5944L58.503 53.8241L56.7464 52.8287C56.1354 52.4459 55.6008 52.4459 55.1425 52.6756C54.6843 52.9053 54.4552 53.4413 54.4552 54.1303V56.0444C54.4552 56.81 54.1497 57.4226 53.6914 57.7288C53.5387 57.8819 53.3096 57.9585 53.0804 57.9585Z" fill="#42E8E0"/>
<path d="M49.9491 59.7196C49.5672 59.7196 49.1853 59.5664 48.8035 59.3368L40.7841 54.6664L40.9369 54.4367L48.8798 59.1836C49.4908 59.5664 50.0255 59.5664 50.4837 59.3368C50.942 59.1071 51.1711 58.5711 51.1711 57.8821V55.968C51.1711 55.2023 51.4766 54.5898 51.9348 54.2836C52.4695 53.9773 53.0805 54.0539 53.7678 54.4367L55.4481 55.432L55.2953 55.6617L53.6151 54.6664C53.0041 54.2836 52.4695 54.2836 52.0112 54.5133C51.553 54.743 51.3238 55.2789 51.3238 55.968V57.8821C51.3238 58.6477 51.0183 59.2602 50.5601 59.5664C50.4073 59.7196 50.1782 59.7196 49.9491 59.7196Z" fill="#42E8E0"/>
<path d="M46.8177 61.557C46.4358 61.557 46.054 61.4039 45.6721 61.1742L37.6527 56.5038L37.8055 56.2741L45.8248 60.9445C46.4358 61.3273 46.9705 61.3273 47.4287 61.0976C47.887 60.8679 48.1161 60.332 48.1161 59.6429V57.7288C48.1161 56.9632 48.4216 56.3507 48.8798 56.0444C49.4144 55.7382 50.0254 55.8148 50.7128 56.1976L52.3931 57.1929L52.2403 57.4226L50.5601 56.4273C49.9491 56.0444 49.4144 56.0444 48.9562 56.2741C48.4979 56.5038 48.2688 57.0398 48.2688 57.7288V59.6429C48.2688 60.4086 47.9633 61.0211 47.5051 61.3273C47.276 61.4804 47.0468 61.557 46.8177 61.557Z" fill="#42E8E0"/>
<path d="M43.6863 63.318C43.3045 63.318 42.9226 63.1648 42.5407 62.9352L34.5214 58.2648L34.6741 58.0351L42.6935 62.782C43.3045 63.1648 43.8391 63.1648 44.2973 62.9352C44.7556 62.7055 44.9847 62.1695 44.9847 61.4805V59.5664C44.9847 58.8007 45.2902 58.1882 45.7485 57.882C46.2831 57.5757 46.8941 57.6523 47.5814 58.0351L49.2617 59.0304L49.1089 59.2601L47.4287 58.2648C46.8177 57.882 46.2831 57.882 45.8248 58.1117C45.3666 58.3413 45.1375 58.8773 45.1375 59.5664V61.4805C45.1375 62.2461 44.832 62.8586 44.3737 63.1648C44.1446 63.318 43.9155 63.318 43.6863 63.318Z" fill="#42E8E0"/>
<path d="M40.555 65.1555C40.1731 65.1555 39.7912 65.0024 39.4094 64.7727L31.39 60.1023L31.5428 59.8726L39.5621 64.543C40.1731 64.9258 40.7077 64.9258 41.166 64.6961C41.6242 64.4665 41.8534 63.9305 41.8534 63.2414V61.3273C41.8534 60.5617 42.1589 59.9492 42.6171 59.643C43.1517 59.3367 43.7627 59.4133 44.4501 59.7961L46.1303 60.7914L45.9776 61.0211L44.2973 60.0258C43.6863 59.643 43.1517 59.6429 42.6935 59.8726C42.2352 60.1023 42.0061 60.6383 42.0061 61.3273V63.2414C42.0061 64.0071 41.7006 64.6196 41.2424 64.9258C41.0896 65.079 40.7841 65.1555 40.555 65.1555Z" fill="#42E8E0"/>
<path d="M37.4236 66.9165C37.0417 66.9165 36.6599 66.7634 36.278 66.5337L28.2586 61.9399L28.4114 61.7102L36.4307 66.3805C37.0417 66.7634 37.5764 66.7634 38.0346 66.5337C38.4929 66.304 38.722 65.768 38.722 65.079V63.1649C38.722 62.3992 39.0275 61.7867 39.4857 61.4805C40.0203 61.1742 40.6313 61.2508 41.3187 61.6336L42.999 62.6289L42.8462 62.7821L41.166 61.7867C40.555 61.4039 40.0203 61.4039 39.5621 61.6336C39.1039 61.8633 38.8747 62.3992 38.8747 63.0883V65.079C38.8747 65.8446 38.5692 66.4571 38.111 66.7634C37.9582 66.9165 37.7291 66.9165 37.4236 66.9165Z" fill="#42E8E0"/>
<path d="M34.2923 68.754C33.9104 68.754 33.5285 68.6009 33.1466 68.3712L25.1273 63.7008L25.28 63.4712L33.2994 68.1415C33.9104 68.5243 34.445 68.5243 34.9033 68.2946C35.3615 68.065 35.5906 67.529 35.5906 66.8399V64.9259C35.5906 64.1602 35.8961 63.5477 36.3544 63.2415C36.889 62.9352 37.5 63.0118 38.1874 63.3946L39.8676 64.3899L39.7149 64.6196L38.0346 63.6243C37.4236 63.2415 36.889 63.2415 36.4307 63.4712C35.9725 63.7008 35.7434 64.2368 35.7434 64.9259V66.8399C35.7434 67.6056 35.4379 68.2181 34.9796 68.5243C34.8269 68.6775 34.5978 68.754 34.2923 68.754Z" fill="#42E8E0"/>
<path d="M31.2373 70.515C30.8554 70.515 30.4735 70.3619 30.0916 70.1322L22.0723 65.4618L22.225 65.2321L30.2444 69.9025C30.8554 70.2853 31.39 70.2853 31.8483 70.0556C32.3065 69.8259 32.5356 69.29 32.5356 68.6009V66.6868C32.5356 65.9212 32.8411 65.3087 33.2994 65.0024C33.834 64.6962 34.445 64.7728 35.1324 65.1556L36.8126 66.1509L36.6599 66.3806L34.9796 65.3853C34.3686 65.0024 33.834 65.0024 33.3758 65.2321C32.9175 65.4618 32.6884 65.9978 32.6884 66.6868V68.6009C32.6884 69.3666 32.3829 69.9791 31.9246 70.2853C31.6955 70.515 31.4664 70.515 31.2373 70.515Z" fill="#42E8E0"/>
<path d="M28.1059 72.3525C27.724 72.3525 27.3422 72.1994 26.9603 71.9697L18.8646 67.3759L19.0173 67.1462L27.0367 71.8166C27.6477 72.1994 28.1823 72.1994 28.6405 71.9697C29.0988 71.74 29.3279 71.2041 29.3279 70.515V68.6009C29.3279 67.8353 29.6334 67.2228 30.0917 66.9165C30.6263 66.6103 31.2373 66.6868 31.9246 67.0696L33.6049 68.065L33.4521 68.2947L31.7719 67.2993C31.1609 66.9165 30.6263 66.9165 30.168 67.1462C29.7098 67.3759 29.4807 67.9118 29.4807 68.6009V70.515C29.4807 71.2806 29.1752 71.8931 28.7169 72.1994C28.5642 72.276 28.335 72.3525 28.1059 72.3525Z" fill="#42E8E0"/>
<path d="M24.9745 74.1134C24.5927 74.1134 24.2108 73.9603 23.8289 73.7306L15.8096 69.0602L15.9623 68.8305L23.9817 73.5009C24.5927 73.8837 25.1273 73.8837 25.5855 73.654C26.0438 73.4243 26.2729 72.8884 26.2729 72.1993V70.2852C26.2729 69.5196 26.5784 68.9071 27.0367 68.6008C27.5713 68.2946 28.1823 68.3711 28.8697 68.754L30.5499 69.7493L30.3971 69.979L28.7169 68.9837C28.1059 68.6008 27.5713 68.6008 27.113 68.8305C26.6548 69.0602 26.4257 69.5962 26.4257 70.2852V72.1993C26.4257 72.965 26.1202 73.5775 25.6619 73.8837C25.4328 74.1134 25.2037 74.1134 24.9745 74.1134Z" fill="#42E8E0"/>
<path d="M21.8432 75.9509C21.4613 75.9509 21.0794 75.7978 20.6975 75.5681L12.6782 70.8977L12.8309 70.6681L20.8503 75.3384C21.4613 75.7212 21.9959 75.7212 22.4542 75.4915C22.9124 75.2619 23.1415 74.7259 23.1415 74.0368V72.1228C23.1415 71.3571 23.447 70.7446 23.9053 70.4384C24.4399 70.1321 25.0509 70.2087 25.7383 70.5915L27.4185 71.5868L27.2658 71.8165L25.5855 70.8212C24.9745 70.4384 24.4399 70.4384 23.9817 70.6681C23.5234 70.8977 23.2943 71.4337 23.2943 72.1228V74.0368C23.2943 74.8025 22.9888 75.415 22.5305 75.7212C22.3014 75.8744 22.0723 75.9509 21.8432 75.9509Z" fill="#42E8E0"/>
<path d="M18.7118 77.7119C18.3299 77.7119 17.9481 77.5588 17.5662 77.3291L9.54684 72.7353L9.69959 72.5056L17.7189 77.176C18.3299 77.5588 18.8646 77.5588 19.3228 77.3291C19.7811 77.0994 20.0102 76.5634 20.0102 75.8744V73.9603C20.0102 73.1946 20.3157 72.5821 20.7739 72.2759C21.3086 71.9696 21.9196 72.0462 22.6069 72.429L24.2872 73.4243L24.1344 73.654L22.4542 72.6587C21.8432 72.2759 21.3086 72.2759 20.8503 72.5056C20.3921 72.7353 20.1629 73.2712 20.1629 73.9603V75.8744C20.1629 76.64 19.8574 77.2525 19.3992 77.5588C19.1701 77.7119 18.9409 77.7119 18.7118 77.7119Z" fill="#42E8E0"/>
<path d="M15.5804 79.5494C15.1986 79.5494 14.8167 79.3963 14.4348 79.1666L6.41547 74.5728L6.56822 74.3431L14.5876 79.0135C15.1986 79.3963 15.7332 79.3963 16.1914 79.1666C16.6497 78.9369 16.8788 78.401 16.8788 77.7119V75.7978C16.8788 75.0322 17.1843 74.4197 17.6426 74.1134C18.1772 73.8072 18.7882 73.8837 19.4755 74.2665L21.1558 75.2619L21.003 75.4916L19.3228 74.4962C18.7118 74.1134 18.1772 74.1134 17.7189 74.3431C17.2607 74.5728 17.0316 75.1087 17.0316 75.7978V77.7119C17.0316 78.4775 16.7261 79.09 16.2678 79.3963C16.0387 79.4728 15.8096 79.5494 15.5804 79.5494Z" fill="#42E8E0"/>
<path d="M12.4491 81.3104C12.0672 81.3104 11.6853 81.1573 11.3035 80.9276L3.28412 76.3338L3.43687 76.1041L11.4562 80.7745C12.0672 81.1573 12.6018 81.1573 13.0601 80.9276C13.5183 80.6979 13.7475 80.1619 13.7475 79.4729V77.5588C13.7475 76.7932 14.053 76.1806 14.5112 75.8744C15.0458 75.5681 15.6568 75.6447 16.3442 76.0275L18.0244 77.0228L17.8717 77.2525L16.1915 76.2572C15.5805 75.8744 15.0458 75.8744 14.5876 76.1041C14.1293 76.3338 13.9002 76.8697 13.9002 77.5588V79.4729C13.9002 80.2385 13.5947 80.851 13.1365 81.1573C12.9837 81.3104 12.7546 81.3104 12.4491 81.3104Z" fill="#42E8E0"/>
<path d="M9.31771 83.1479C8.93584 83.1479 8.55396 82.9948 8.17209 82.7651L0.15274 78.0948L0.30549 77.8651L8.32484 82.5354C8.93584 82.9183 9.47046 82.9183 9.92871 82.6886C10.387 82.4589 10.6161 81.9229 10.6161 81.2339V79.3198C10.6161 78.5541 10.9216 77.9416 11.3798 77.6354C11.9145 77.3291 12.5254 77.4057 13.2128 77.7885L14.8931 78.7838L14.7403 79.0135L13.0601 78.0182C12.4491 77.6354 11.9145 77.6354 11.4562 77.8651C10.998 78.0948 10.7688 78.6307 10.7688 79.3198V81.2339C10.7688 81.9995 10.4633 82.612 10.0051 82.9183C9.85233 83.0714 9.62321 83.1479 9.31771 83.1479Z" fill="#42E8E0"/>
<path d="M81.4919 49.0772C81.2627 49.0772 81.0336 49.0007 80.8045 48.9241C80.2699 48.6179 80.0407 48.0054 80.0407 47.2397V45.3256C80.0407 44.6366 79.8116 44.1006 79.3534 43.8709C78.8951 43.6412 78.3605 43.7178 77.7495 44.0241L76.0693 45.0194L75.9165 44.7897L77.5967 43.7944C78.2841 43.4116 78.9715 43.335 79.4297 43.6412C79.9644 43.9475 80.1935 44.56 80.1935 45.3256V47.2397C80.1935 47.9288 80.4226 48.4647 80.8809 48.6944C81.3391 48.9241 81.8737 48.8476 82.4847 48.5413L90.5041 43.8709L90.6568 44.1006L82.6375 48.771C82.1792 49.0007 81.7974 49.0772 81.4919 49.0772Z" fill="#42E8E0"/>
<path d="M84.5469 50.9148C84.3177 50.9148 84.0886 50.8382 83.8595 50.7616C83.3249 50.4554 83.0957 49.8429 83.0957 49.0772V47.1632C83.0957 46.4741 82.8666 45.9381 82.4084 45.7085C81.9501 45.4788 81.4155 45.5553 80.8045 45.8616L79.1242 46.8569L78.9715 46.6272L80.6517 45.6319C81.3391 45.2491 82.0265 45.1725 82.4847 45.4788C83.0194 45.785 83.2485 46.3975 83.2485 47.1632V49.0007C83.2485 49.6898 83.4776 50.2257 83.9359 50.4554C84.3941 50.6851 84.9287 50.6085 85.5397 50.3023L93.5591 45.6319L93.7118 45.8616L85.7689 50.532C85.3106 50.7616 84.9287 50.9148 84.5469 50.9148Z" fill="#42E8E0"/>
<path d="M87.6782 52.6758C87.4491 52.6758 87.22 52.5992 86.9908 52.5226C86.4562 52.2164 86.2271 51.6039 86.2271 50.8382V48.9242C86.2271 48.2351 85.998 47.6991 85.5397 47.4694C85.0815 47.2398 84.5468 47.3163 83.9358 47.6226L82.2556 48.6179L82.1028 48.3882L83.7831 47.3929C84.4705 47.0101 85.1578 46.9335 85.6161 47.2398C86.1507 47.546 86.3798 48.1585 86.3798 48.9242V50.8382C86.3798 51.5273 86.609 52.0633 87.0672 52.2929C87.5255 52.5226 88.0601 52.4461 88.6711 52.1398L96.6904 47.4694L96.8432 47.6991L88.8238 52.3695C88.4419 52.5992 88.0601 52.6758 87.6782 52.6758Z" fill="#42E8E0"/>
<path d="M90.8096 54.5133C90.5805 54.5133 90.3513 54.4367 90.1222 54.3601C89.5876 54.0539 89.3585 53.4414 89.3585 52.6758V50.7617C89.3585 50.0726 89.1293 49.5367 88.6711 49.307C88.2128 49.0773 87.6782 49.1538 87.0672 49.4601L85.387 50.4554L85.2342 50.2257L86.9145 49.2304C87.6018 48.8476 88.2892 48.771 88.7475 49.0773C89.2821 49.3835 89.5112 49.996 89.5112 50.7617V52.6758C89.5112 53.3648 89.7403 53.9008 90.1986 54.1305C90.6568 54.3601 91.1914 54.2836 91.8024 53.9773L99.8218 49.307L99.9745 49.5367L91.9552 54.207C91.5733 54.3601 91.1915 54.5133 90.8096 54.5133Z" fill="#42E8E0"/>
<path d="M93.9409 56.2741C93.7118 56.2741 93.4827 56.1976 93.2536 56.121C92.7189 55.8148 92.4898 55.2023 92.4898 54.4366V52.5225C92.4898 51.8335 92.2607 51.2975 91.8024 51.0678C91.3442 50.8381 90.8096 50.9147 90.1986 51.221L88.5183 52.2163L88.3656 51.9866L90.0458 50.9913C90.7332 50.6085 91.4206 50.5319 91.8788 50.8381C92.4134 51.1444 92.6426 51.7569 92.6426 52.5225V54.4366C92.6426 55.1257 92.8717 55.6616 93.3299 55.8913C93.7882 56.121 94.3228 56.0445 94.9338 55.7382L102.953 51.0678L103.106 51.2975L95.0866 55.9679C94.7047 56.1976 94.3228 56.2741 93.9409 56.2741Z" fill="#42E8E0"/>
<path d="M97.0723 58.1117C96.8432 58.1117 96.6141 58.0351 96.3849 57.9585C95.8503 57.6523 95.6212 57.0398 95.6212 56.2741V54.3601C95.6212 53.671 95.3921 53.135 94.9338 52.9054C94.4756 52.6757 93.9409 52.7522 93.3299 53.0585L91.6497 54.0538L91.4969 53.8241L93.1772 52.8288C93.8646 52.446 94.5519 52.3694 95.0102 52.6757C95.5448 52.9819 95.7739 53.5944 95.7739 54.3601V56.2741C95.7739 56.9632 96.0031 57.4992 96.4613 57.7289C96.9196 57.9585 97.4542 57.882 98.0652 57.5757L106.085 52.9054L106.237 53.135L98.2179 57.8054C97.8361 57.9585 97.4542 58.1117 97.0723 58.1117Z" fill="#42E8E0"/>
<path d="M100.204 59.8727C99.9745 59.8727 99.7454 59.7961 99.5163 59.7195C98.9817 59.4133 98.7525 58.8008 98.7525 58.0351V56.1211C98.7525 55.432 98.5234 54.896 98.0652 54.6663C97.6069 54.4367 97.0723 54.5132 96.4613 54.8195L94.781 55.8148L94.6283 55.5851L96.3085 54.5898C96.9959 54.207 97.6833 54.1304 98.1415 54.4367C98.6762 54.7429 98.9053 55.3554 98.9053 56.1211V58.0351C98.9053 58.7242 99.1344 59.2601 99.5927 59.4898C100.051 59.7195 100.586 59.643 101.197 59.3367L109.216 54.6663L109.369 54.896L101.349 59.5664C100.967 59.7961 100.586 59.8727 100.204 59.8727Z" fill="#42E8E0"/>
<path d="M103.335 61.7102C103.106 61.7102 102.877 61.6336 102.648 61.5571C102.113 61.2508 101.884 60.6383 101.884 59.8727V57.9586C101.884 57.2695 101.655 56.7336 101.197 56.5039C100.738 56.2742 100.204 56.3507 99.5927 56.657L97.9124 57.6523L97.7597 57.4226L99.4399 56.4273C100.127 56.0445 100.815 55.9679 101.273 56.2742C101.808 56.5804 102.037 57.1929 102.037 57.9586V59.8727C102.037 60.5617 102.266 61.0977 102.724 61.3274C103.182 61.5571 103.717 61.4805 104.328 61.1742L112.347 56.5039L112.5 56.7336L104.481 61.4039C104.099 61.5571 103.641 61.7102 103.335 61.7102Z" fill="#42E8E0"/>
<path d="M106.466 63.4712C106.237 63.4712 106.008 63.3946 105.779 63.318C105.244 63.0118 105.015 62.3993 105.015 61.6336V59.7196C105.015 59.0305 104.786 58.4945 104.328 58.2649C103.87 58.0352 103.335 58.1117 102.724 58.418L101.044 59.4133L100.891 59.1836L102.571 58.1883C103.259 57.8055 103.946 57.7289 104.404 58.0352C104.939 58.3414 105.168 58.9539 105.168 59.7196V61.6336C105.168 62.3227 105.397 62.8587 105.855 63.0884C106.314 63.318 106.848 63.2415 107.459 62.9352L115.479 58.2649L115.631 58.4945L107.612 63.1649C107.154 63.3946 106.772 63.4712 106.466 63.4712Z" fill="#42E8E0"/>
<path d="M109.598 65.3087C109.369 65.3087 109.14 65.2321 108.91 65.1556C108.376 64.8493 108.147 64.2368 108.147 63.4712V61.5571C108.147 60.868 107.918 60.3321 107.459 60.1024C107.001 59.8727 106.466 59.9493 105.855 60.2555L104.175 61.2508L104.022 61.0211L105.703 60.0258C106.39 59.643 107.077 59.5664 107.536 59.8727C108.07 60.1789 108.299 60.7915 108.299 61.5571V63.4712C108.299 64.1602 108.529 64.6962 108.987 64.9259C109.445 65.1556 109.98 65.079 110.591 64.7728L118.61 60.1024L118.763 60.3321L110.743 64.9259C110.285 65.1556 109.903 65.3087 109.598 65.3087Z" fill="#42E8E0"/>
<path d="M112.653 67.0697C112.424 67.0697 112.195 66.9931 111.965 66.9165C111.431 66.6103 111.202 65.9978 111.202 65.2322V63.3181C111.202 62.629 110.973 62.0931 110.514 61.8634C110.056 61.6337 109.521 61.7102 108.91 62.0165L107.23 63.0118L107.077 62.7821L108.758 61.7868C109.445 61.404 110.132 61.3274 110.591 61.6337C111.125 61.9399 111.354 62.5524 111.354 63.3181V65.2322C111.354 65.9212 111.584 66.4572 112.042 66.6869C112.5 66.9165 113.035 66.84 113.646 66.5337L121.665 61.8634L121.818 62.0931L113.798 66.7634C113.417 66.9931 113.035 67.0697 112.653 67.0697Z" fill="#42E8E0"/>
<path d="M115.784 68.9072C115.555 68.9072 115.326 68.8307 115.097 68.7541C114.562 68.4478 114.333 67.8353 114.333 67.0697V65.0791C114.333 64.39 114.104 63.854 113.646 63.6243C113.187 63.3947 112.653 63.4712 112.042 63.7775L110.361 64.7728L110.209 64.5431L111.889 63.5478C112.576 63.165 113.264 63.0884 113.722 63.3947C114.257 63.7009 114.486 64.3134 114.486 65.0791V66.9931C114.486 67.6822 114.715 68.2181 115.173 68.4478C115.631 68.6775 116.166 68.601 116.777 68.2947L124.796 63.6243L124.949 63.854L116.93 68.5244C116.548 68.7541 116.166 68.9072 115.784 68.9072Z" fill="#42E8E0"/>
<path d="M118.915 70.6682C118.686 70.6682 118.457 70.5916 118.228 70.5151C117.693 70.2088 117.464 69.5963 117.464 68.8307V66.9166C117.464 66.2275 117.235 65.6916 116.777 65.4619C116.319 65.2322 115.784 65.3087 115.173 65.615L113.493 66.6103L113.34 66.3806L115.02 65.3853C115.708 65.0025 116.395 64.9259 116.853 65.2322C117.388 65.5384 117.617 66.1509 117.617 66.9166V68.8307C117.617 69.5197 117.846 70.0557 118.304 70.2854C118.763 70.5151 119.297 70.4385 119.908 70.1322L127.928 65.4619L128.08 65.6916L120.061 70.3619C119.679 70.5916 119.297 70.6682 118.915 70.6682Z" fill="#42E8E0"/>
<path d="M122.047 72.5056C121.818 72.5056 121.589 72.429 121.359 72.3525C120.825 72.0462 120.596 71.4337 120.596 70.6681V68.754C120.596 68.0649 120.367 67.529 119.908 67.2993C119.45 67.0696 118.915 67.1461 118.304 67.4524L116.624 68.4477L116.471 68.218L118.152 67.2227C118.839 66.8399 119.526 66.7633 119.985 67.0696C120.519 67.3758 120.748 67.9884 120.748 68.754V70.6681C120.748 71.3571 120.978 71.8931 121.436 72.1228C121.894 72.3525 122.429 72.2759 123.04 71.9697L131.059 67.2993L131.212 67.529L123.192 72.1993C122.811 72.3525 122.429 72.5056 122.047 72.5056Z" fill="#42E8E0"/>
<path d="M125.178 74.2666C124.949 74.2666 124.72 74.19 124.491 74.1134C123.956 73.8072 123.727 73.1947 123.727 72.429V70.515C123.727 69.8259 123.498 69.29 123.04 69.0603C122.581 68.8306 122.047 68.9071 121.436 69.2134L119.756 70.2087L119.603 69.979L121.283 68.9837C121.97 68.6009 122.658 68.5243 123.116 68.8306C123.651 69.1368 123.88 69.7493 123.88 70.515V72.429C123.88 73.1181 124.109 73.6541 124.567 73.8838C125.025 74.1134 125.56 74.0369 126.171 73.7306L134.19 69.0603L134.343 69.29L126.324 73.9603C125.942 74.19 125.56 74.2666 125.178 74.2666Z" fill="#42E8E0"/>
<path d="M128.31 76.1041C128.08 76.1041 127.851 76.0275 127.622 75.951C127.088 75.6447 126.858 75.0322 126.858 74.2666V72.3525C126.858 71.6634 126.629 71.1275 126.171 70.8978C125.713 70.6681 125.178 70.7447 124.567 71.0509L122.887 72.0462L122.734 71.8165L124.414 70.8212C125.102 70.4384 125.789 70.3618 126.247 70.6681C126.782 70.9744 127.011 71.5869 127.011 72.3525V74.2666C127.011 74.9556 127.24 75.4916 127.699 75.7213C128.157 75.951 128.691 75.8744 129.302 75.5681L137.322 70.8978L137.475 71.1275L129.455 75.7978C129.073 75.951 128.615 76.1041 128.31 76.1041Z" fill="#42E8E0"/>
<path d="M131.441 77.8651C131.212 77.8651 130.983 77.7885 130.754 77.712C130.219 77.4057 129.99 76.7932 129.99 76.0276V74.1135C129.99 73.4244 129.761 72.8885 129.302 72.6588C128.844 72.4291 128.31 72.5056 127.699 72.8119L126.018 73.8072L125.866 73.5775L127.546 72.5822C128.233 72.1994 128.921 72.1228 129.379 72.4291C129.913 72.7353 130.143 73.3478 130.143 74.1135V76.0276C130.143 76.7166 130.372 77.2526 130.83 77.4823C131.288 77.712 131.823 77.6354 132.434 77.3291L140.453 72.6588L140.606 72.8885L132.587 77.5588C132.128 77.7885 131.746 77.8651 131.441 77.8651Z" fill="#42E8E0"/>
<path d="M134.572 79.7026C134.343 79.7026 134.114 79.626 133.885 79.5495C133.35 79.2432 133.121 78.6307 133.121 77.8651V75.951C133.121 75.2619 132.892 74.726 132.434 74.4963C131.976 74.2666 131.441 74.3432 130.83 74.6494L129.15 75.6448L128.997 75.4151L130.677 74.4197C131.365 74.0369 132.052 73.9604 132.51 74.2666C133.045 74.5729 133.274 75.1854 133.274 75.951V77.8651C133.274 78.5542 133.503 79.0901 133.961 79.3198C134.42 79.5495 134.954 79.4729 135.565 79.1667L143.585 74.4963L143.737 74.726L135.718 79.3964C135.26 79.5495 134.878 79.7026 134.572 79.7026Z" fill="#42E8E0"/>
<path d="M137.627 81.4636C137.398 81.4636 137.169 81.387 136.94 81.3105C136.405 81.0042 136.176 80.3917 136.176 79.6261V77.712C136.176 77.0229 135.947 76.487 135.489 76.2573C135.031 76.0276 134.496 76.1042 133.885 76.4104L132.205 77.4057L132.052 77.176L133.732 76.1807C134.42 75.7979 135.107 75.7213 135.565 76.0276C136.1 76.3339 136.329 76.9464 136.329 77.712V79.6261C136.329 80.3152 136.558 80.8511 137.016 81.0808C137.475 81.3105 138.009 81.2339 138.62 80.9277L146.64 76.2573L146.792 76.487L138.773 81.1574C138.391 81.387 138.009 81.4636 137.627 81.4636Z" fill="#42E8E0"/>
<path d="M140.759 83.3011C140.53 83.3011 140.3 83.2246 140.071 83.148C139.537 82.8417 139.308 82.2292 139.308 81.4636V79.5495C139.308 78.8604 139.078 78.3245 138.62 78.0948C138.162 77.8651 137.627 77.9417 137.016 78.2479L135.336 79.2433L135.183 79.0136L136.864 78.0182C137.551 77.6354 138.238 77.5589 138.697 77.8651C139.231 78.1714 139.46 78.7839 139.46 79.5495V81.4636C139.46 82.1527 139.689 82.6886 140.148 82.9183C140.606 83.148 141.141 83.0714 141.752 82.7652L149.771 78.0948L149.924 78.3245L141.904 82.9949C141.522 83.148 141.141 83.3011 140.759 83.3011Z" fill="#42E8E0"/>
<path d="M136.787 79.7792V86.8996L75.0764 122.578L13.442 86.8996V79.7792H136.787Z" fill="url(#paint0_linear)"/>
<path d="M75.0764 115.458L13.442 79.7792L75.0764 44.024L136.787 79.7792L75.0764 115.458Z" fill="#BCBEFF"/>
<path d="M75.0764 114.616L14.1293 79.3198L13.442 79.7792L75.0764 115.458L136.787 79.7792L136.023 79.3198L75.0764 114.616Z" fill="white"/>
<path d="M75.0764 107.189L27.6476 79.7792L75.0764 52.293L122.505 79.7792L75.0764 107.189Z" fill="#0F054C"/>
<path opacity="0.5" d="M75.0764 107.189L27.6476 79.7792L75.0764 52.293L122.505 79.7792L75.0764 107.189Z" fill="url(#paint1_linear)"/>
<path opacity="0.5" d="M75.0764 45.4022L122.505 72.8119V79.7792L75.0764 52.2929V45.4022Z" fill="url(#paint2_linear)"/>
<path opacity="0.5" d="M75.0764 52.2929L27.6476 79.7792V72.8119L75.0764 45.4022V52.2929Z" fill="url(#paint3_linear)"/>
<path opacity="0.5" d="M75.0764 100.298L27.6476 72.8119L75.0764 45.4022L122.505 72.8119L75.0764 100.298Z" fill="url(#paint4_linear)"/>
<path opacity="0.5" d="M75.0764 83.8371L56.1354 72.812L75.0764 61.8634L94.0173 72.812L75.0764 83.8371Z" fill="#42E8E0"/>
<path opacity="0.5" d="M75.0764 62.8587L93.1772 73.3479L94.0173 72.812L75.0764 61.8634L56.1354 72.812L56.9756 73.3479L75.0764 62.8587Z" fill="#42E8E0"/>
<path opacity="0.5" d="M75.0764 100.298V107.189L122.505 79.7792V72.8119L75.0764 100.298Z" fill="url(#paint5_linear)"/>
<path opacity="0.5" d="M27.6476 72.8119V79.7792L75.0764 107.189V100.298L27.6476 72.8119Z" fill="url(#paint6_linear)"/>
<path opacity="0.8" d="M75.0764 99.5325L28.335 72.4291L27.6476 72.8119L75.0764 100.298L122.505 72.8119L121.894 72.4291L75.0764 99.5325Z" fill="#42E8E0"/>
<path d="M90.5041 131L82.4847 126.33C81.11 125.564 79.9644 123.573 79.9644 121.966V120.051C79.9644 118.52 78.8951 116.683 77.5967 115.917L75.9165 114.922L76.0693 114.692L77.7495 115.687C79.1242 116.453 80.2699 118.444 80.2699 120.051V121.966C80.2699 123.497 81.3391 125.334 82.6375 126.1L90.6568 130.77L90.5041 131Z" fill="#42E8E0"/>
<path d="M93.6354 129.162L85.6161 124.492C84.2413 123.726 83.0957 121.736 83.0957 120.128V118.214C83.0957 116.683 82.0265 114.845 80.7281 114.08L79.0479 113.084L79.2006 112.854L80.8808 113.85C82.2556 114.615 83.4012 116.606 83.4012 118.214V120.128C83.4012 121.659 84.4705 123.497 85.7688 124.262L93.7882 128.933L93.6354 129.162Z" fill="#42E8E0"/>
<path d="M96.7668 127.401L88.7475 122.731C87.3727 121.965 86.2271 119.975 86.2271 118.367V116.453C86.2271 114.922 85.1578 113.084 83.8595 112.319L82.1792 111.323L82.332 111.094L84.0122 112.089C85.387 112.854 86.5326 114.845 86.5326 116.453V118.367C86.5326 119.898 87.6018 121.736 88.9002 122.501L96.9196 127.172L96.7668 127.401Z" fill="#42E8E0"/>
<path d="M99.8982 125.564L91.8788 120.894C90.5041 120.128 89.3585 118.137 89.3585 116.53V114.615C89.3585 113.084 88.2892 111.247 86.9909 110.481L85.3106 109.486L85.4634 109.256L87.1436 110.251C88.5183 111.017 89.664 113.008 89.664 114.615V116.53C89.664 118.061 90.7332 119.898 92.0316 120.664L100.051 125.334L99.8982 125.564Z" fill="#42E8E0"/>
<path d="M103.03 123.803L95.0102 119.133C93.6354 118.367 92.4898 116.376 92.4898 114.769V112.854C92.4898 111.323 91.4206 109.486 90.1222 108.72L88.442 107.725L88.5947 107.495L90.2749 108.49C91.6497 109.256 92.7953 111.247 92.7953 112.854V114.769C92.7953 116.3 93.8646 118.137 95.1629 118.903L103.182 123.573L103.03 123.803Z" fill="#42E8E0"/>
<path d="M106.161 121.966L98.1415 117.295C96.7668 116.53 95.6212 114.539 95.6212 112.931V111.017C95.6212 109.486 94.5519 107.648 93.2535 106.883L91.5733 105.887L91.7261 105.658L93.4063 106.653C94.781 107.419 95.9267 109.409 95.9267 111.017V112.931C95.9267 114.462 96.9959 116.3 98.2943 117.066L106.314 121.736L106.161 121.966Z" fill="#42E8E0"/>
<path d="M109.216 120.128L101.197 115.458C99.8218 114.692 98.6762 112.701 98.6762 111.094V109.179C98.6762 107.648 97.6069 105.811 96.3085 105.045L94.7047 104.126L94.8574 103.897L96.5377 104.892C97.9124 105.658 99.058 107.648 99.058 109.256V111.17C99.058 112.701 100.127 114.539 101.426 115.305L109.445 119.975L109.216 120.128Z" fill="#42E8E0"/>
<path d="M112.347 118.367L104.328 113.697C102.953 112.931 101.808 110.94 101.808 109.333V107.419C101.808 105.887 100.738 104.05 99.4399 103.284L97.7597 102.289L97.9124 102.059L99.5927 103.054C100.967 103.82 102.113 105.811 102.113 107.419V109.333C102.113 110.864 103.182 112.701 104.481 113.467L112.5 118.137L112.347 118.367Z" fill="#42E8E0"/>
<path d="M115.479 116.53L107.459 111.859C106.085 111.094 104.939 109.103 104.939 107.495V105.658C104.939 104.126 103.87 102.289 102.571 101.523L100.891 100.528L101.044 100.298L102.724 101.293C104.099 102.059 105.244 104.05 105.244 105.658V107.572C105.244 109.103 106.314 110.94 107.612 111.706L115.631 116.376L115.479 116.53Z" fill="#42E8E0"/>
<path d="M118.61 114.769L110.591 110.098C109.216 109.333 108.07 107.342 108.07 105.734V103.82C108.07 102.289 107.001 100.451 105.703 99.6856L104.022 98.6903L104.175 98.4606L105.855 99.4559C107.23 100.222 108.376 102.212 108.376 103.82V105.734C108.376 107.265 109.445 109.103 110.743 109.869L118.763 114.539L118.61 114.769Z" fill="#42E8E0"/>
<path d="M121.741 112.931L113.722 108.261C112.347 107.495 111.202 105.504 111.202 103.897V101.982C111.202 100.451 110.132 98.6137 108.834 97.8481L107.154 96.8527L107.307 96.623L108.987 97.6184C110.362 98.384 111.507 100.375 111.507 101.982V103.897C111.507 105.428 112.576 107.265 113.875 108.031L121.894 112.701L121.741 112.931Z" fill="#42E8E0"/>
<path d="M124.873 111.17L116.853 106.5C115.479 105.734 114.333 103.743 114.333 102.136V100.221C114.333 98.6902 113.264 96.8527 111.965 96.0871L110.285 95.0917L110.438 94.8621L112.118 95.8574C113.493 96.623 114.638 98.6137 114.638 100.221V102.136C114.638 103.667 115.708 105.504 117.006 106.27L125.025 110.94L124.873 111.17Z" fill="#42E8E0"/>
<path d="M128.004 109.333L119.985 104.662C118.61 103.897 117.464 101.906 117.464 100.298V98.384C117.464 96.8527 116.395 95.0152 115.097 94.2495L113.417 93.2542L113.569 93.0245L115.249 94.0199C116.624 94.7855 117.77 96.7761 117.77 98.384V100.298C117.77 101.829 118.839 103.667 120.137 104.432L128.157 109.103L128.004 109.333Z" fill="#42E8E0"/>
<path d="M131.135 107.572L123.116 102.901C121.741 102.136 120.596 100.145 120.596 98.5372V96.6231C120.596 95.0918 119.526 93.2543 118.228 92.4887L116.548 91.4934L116.701 91.2637L118.381 92.259C119.756 93.0246 120.901 95.0153 120.901 96.6231V98.5372C120.901 100.068 121.97 101.906 123.269 102.672L131.288 107.342L131.135 107.572Z" fill="#42E8E0"/>
<path d="M134.267 105.734L126.247 101.064C124.873 100.298 123.727 98.3074 123.727 96.6996V94.7855C123.727 93.2542 122.658 91.4167 121.36 90.651L119.679 89.6557L119.832 89.426L121.512 90.4213C122.887 91.187 124.033 93.1776 124.033 94.7855V96.6996C124.033 98.2308 125.102 100.068 126.4 100.834L134.42 105.504L134.267 105.734Z" fill="#42E8E0"/>
<path d="M137.322 103.897L129.302 99.2263C127.928 98.4606 126.782 96.47 126.782 94.8621V92.9481C126.782 91.4168 125.713 89.5793 124.414 88.8136L122.734 87.8183L122.887 87.5886L124.567 88.5839C125.942 89.3496 127.088 91.3402 127.088 92.9481V94.8621C127.088 96.3934 128.157 98.2309 129.455 98.9966L137.475 103.667L137.322 103.897Z" fill="#42E8E0"/>
<path d="M140.453 102.136L132.434 97.4653C131.059 96.6996 129.913 94.709 129.913 93.1012V91.1871C129.913 89.6558 128.844 87.8183 127.546 87.0527L125.866 86.0573L126.018 85.8276L127.699 86.823C129.073 87.5886 130.219 89.5792 130.219 91.1871V93.1012C130.219 94.6324 131.288 96.47 132.587 97.2356L140.606 101.906L140.453 102.136Z" fill="#42E8E0"/>
<path d="M143.585 100.298L135.565 95.6277C134.19 94.8621 133.045 92.8715 133.045 91.2636V89.3495C133.045 87.8183 131.976 85.9808 130.677 85.2151L128.997 84.2198L129.15 83.9901L130.83 84.9854C132.205 85.7511 133.35 87.7417 133.35 89.3495V91.2636C133.35 92.7949 134.42 94.6324 135.718 95.3981L143.737 100.068L143.585 100.298Z" fill="#42E8E0"/>
<path d="M146.716 98.5371L138.697 93.8668C137.322 93.1011 136.176 91.1105 136.176 89.5027V87.5886C136.176 86.0573 135.107 84.2198 133.809 83.4541L132.128 82.4588L132.281 82.2291L133.961 83.2244C135.336 83.9901 136.482 85.9807 136.482 87.5886V89.5027C136.482 91.0339 137.551 92.8714 138.849 93.6371L146.869 98.3074L146.716 98.5371Z" fill="#42E8E0"/>
<path d="M149.847 96.6996L141.828 92.0292C140.453 91.2636 139.308 89.273 139.308 87.6651V85.751C139.308 84.2198 138.238 82.3822 136.94 81.6166L135.26 80.6213L135.412 80.3916L137.093 81.3869C138.467 82.1526 139.613 84.1432 139.613 85.751V87.6651C139.613 89.1964 140.682 91.0339 141.981 91.7996L150 96.4699L149.847 96.6996Z" fill="#42E8E0"/>
<path d="M59.4195 131L59.2668 130.77L67.2861 126.1C68.5845 125.334 69.6537 123.497 69.6537 121.966V120.051C69.6537 118.444 70.7994 116.53 72.1741 115.687L73.8544 114.692L74.0071 114.922L72.3269 115.917C71.0285 116.683 69.9592 118.52 69.9592 120.051V121.966C69.9592 123.573 68.8136 125.487 67.4389 126.33L59.4195 131Z" fill="#42E8E0"/>
<path d="M56.2882 129.162L56.1354 128.933L64.1548 124.262C65.4532 123.497 66.5224 121.659 66.5224 120.128V118.214C66.5224 116.606 67.668 114.692 69.0428 113.85L70.723 112.854L70.8758 113.084L69.1955 114.08C67.8971 114.845 66.8279 116.683 66.8279 118.214V120.128C66.8279 121.736 65.6823 123.65 64.3075 124.492L56.2882 129.162Z" fill="#42E8E0"/>
<path d="M53.2332 127.401L53.0804 127.172L61.0998 122.501C62.3982 121.736 63.4674 119.898 63.4674 118.367V116.453C63.4674 114.845 64.613 112.931 65.9878 112.089L67.668 111.094L67.8208 111.323L66.1405 112.319C64.8421 113.084 63.7729 114.922 63.7729 116.453V118.367C63.7729 119.975 62.6273 121.889 61.2525 122.731L53.2332 127.401Z" fill="#42E8E0"/>
<path d="M50.1018 125.564L49.9491 125.334L57.9684 120.664C59.2668 119.898 60.3361 118.061 60.3361 116.53V114.615C60.3361 113.008 61.4817 111.094 62.8564 110.251L64.5367 109.256L64.6894 109.486L63.0092 110.481C61.7108 111.247 60.6416 113.084 60.6416 114.615V116.53C60.6416 118.137 59.4959 120.051 58.1212 120.894L50.1018 125.564Z" fill="#42E8E0"/>
<path d="M46.9705 123.803L46.8177 123.573L54.8371 118.903C56.1354 118.137 57.2047 116.3 57.2047 114.769V112.854C57.2047 111.247 58.3503 109.333 59.725 108.49L61.4053 107.495L61.558 107.725L59.8778 108.72C58.5794 109.486 57.5102 111.323 57.5102 112.854V114.769C57.5102 116.376 56.3646 118.29 54.9898 119.133L46.9705 123.803Z" fill="#42E8E0"/>
<path d="M43.8391 121.966L43.6863 121.736L51.7057 117.066C53.0041 116.3 54.0733 114.462 54.0733 112.931V111.017C54.0733 109.409 55.2189 107.495 56.5937 106.653L58.2739 105.658L58.4267 105.887L56.7464 106.883C55.4481 107.648 54.3788 109.486 54.3788 111.017V112.931C54.3788 114.539 53.2332 116.453 51.8584 117.295L43.8391 121.966Z" fill="#42E8E0"/>
<path d="M40.7077 120.128L40.555 119.898L48.5743 115.228C49.8727 114.462 50.942 112.625 50.942 111.094V109.18C50.942 107.572 52.0876 105.658 53.4623 104.815L55.1426 103.82L55.2953 104.05L53.6151 105.045C52.3167 105.811 51.2475 107.648 51.2475 109.18V111.094C51.2475 112.701 50.1018 114.616 48.7271 115.458L40.7077 120.128Z" fill="#42E8E0"/>
<path d="M37.5764 118.367L37.4236 118.137L45.443 113.467C46.7414 112.701 47.8106 110.864 47.8106 109.333V107.419C47.8106 105.811 48.9562 103.897 50.331 103.054L52.0112 102.059L52.164 102.289L50.4837 103.284C49.1854 104.05 48.1161 105.887 48.1161 107.419V109.333C48.1161 110.94 46.9705 112.855 45.5957 113.697L37.5764 118.367Z" fill="#42E8E0"/>
<path d="M31.3136 114.769L31.1609 114.539L39.1802 109.869C40.4786 109.103 41.5479 107.265 41.5479 105.734V103.82C41.5479 102.212 42.6935 100.298 44.0682 99.4559L45.7485 98.4606L45.9012 98.6903L44.221 99.6856C42.9226 100.451 41.8534 102.289 41.8534 103.82V105.734C41.8534 107.342 40.7077 109.256 39.333 110.098L31.3136 114.769Z" fill="#42E8E0"/>
<path d="M28.2586 112.931L28.1059 112.701L36.1252 108.031C37.4236 107.265 38.4929 105.428 38.4929 103.897V101.982C38.4929 100.375 39.6385 98.4606 41.0132 97.6184L42.6935 96.623L42.8462 96.8527L41.166 97.8481C39.8676 98.6137 38.7984 100.451 38.7984 101.982V103.897C38.7984 105.504 37.6527 107.418 36.278 108.261L28.2586 112.931Z" fill="#42E8E0"/>
<path d="M25.1273 111.17L24.9745 110.94L32.9939 106.27C34.2923 105.504 35.3615 103.667 35.3615 102.136V100.221C35.3615 98.6137 36.5071 96.6996 37.8819 95.8574L39.5621 94.8621L39.7149 95.0917L38.0346 96.0871C36.7363 96.8527 35.667 98.6902 35.667 100.221V102.136C35.667 103.743 34.5214 105.658 33.1466 106.5L25.1273 111.17Z" fill="#42E8E0"/>
<path d="M21.9959 109.333L21.8432 109.103L29.8625 104.432C31.1609 103.667 32.2301 101.829 32.2301 100.298V98.384C32.2301 96.7761 33.3758 94.8621 34.7505 94.0199L36.4308 93.0245L36.5835 93.2542L34.9033 94.2495C33.6049 95.0152 32.5356 96.8527 32.5356 98.384V100.298C32.5356 101.906 31.39 103.82 30.0153 104.662L21.9959 109.333Z" fill="#42E8E0"/>
<path d="M18.8646 107.572L18.7118 107.342L26.7312 102.672C28.0295 101.906 29.0988 100.068 29.0988 98.5372V96.6231C29.0988 95.0153 30.2444 93.1012 31.6192 92.259L33.2994 91.2637L33.4521 91.4934L31.7719 92.4887C30.4735 93.2543 29.4043 95.0918 29.4043 96.6231V98.5372C29.4043 100.145 28.2587 102.059 26.8839 102.901L18.8646 107.572Z" fill="#42E8E0"/>
<path d="M15.7332 105.734L15.5804 105.504L23.5998 100.834C24.8982 100.068 25.9674 98.2308 25.9674 96.6996V94.7855C25.9674 93.1776 27.113 91.2635 28.4878 90.4213L30.168 89.426L30.3208 89.6557L28.6405 90.651C27.3422 91.4167 26.2729 93.2542 26.2729 94.7855V96.6996C26.2729 98.3074 25.1273 100.221 23.7525 101.064L15.7332 105.734Z" fill="#42E8E0"/>
<path d="M12.6018 103.897L12.4491 103.667L20.4684 98.9966C21.7668 98.2309 22.8361 96.3934 22.8361 94.8621V92.9481C22.8361 91.3402 23.9817 89.4261 25.3564 88.5839L27.0367 87.5886L27.1894 87.8183L25.5092 88.8136C24.2108 89.5793 23.1416 91.4168 23.1416 92.9481V94.8621C23.1416 96.47 21.9959 98.3841 20.6212 99.2263L12.6018 103.897Z" fill="#42E8E0"/>
<path d="M9.47047 102.136L9.31772 101.906L17.3371 97.2356C18.6354 96.47 19.7047 94.6324 19.7047 93.1012V91.1871C19.7047 89.5792 20.8503 87.6652 22.2251 86.823L23.9053 85.8276L24.058 86.0573L22.3778 87.0527C21.0794 87.8183 20.0102 89.6558 20.0102 91.1871V93.1012C20.0102 94.709 18.8646 96.6231 17.4898 97.4653L9.47047 102.136Z" fill="#42E8E0"/>
<path d="M6.33909 100.298L6.18634 100.068L14.2057 95.3981C15.5041 94.6324 16.5733 92.7949 16.5733 91.2636V89.3495C16.5733 87.7417 17.7189 85.8276 19.0937 84.9854L20.7739 83.9901L20.9267 84.2198L19.2464 85.2151C17.9481 85.9808 16.8788 87.8183 16.8788 89.3495V91.2636C16.8788 92.8715 15.7332 94.7856 14.3584 95.6277L6.33909 100.298Z" fill="#42E8E0"/>
<path d="M3.20774 98.5371L3.05499 98.3074L11.0743 93.6371C12.3727 92.8714 13.442 91.0339 13.442 89.5027V87.5886C13.442 85.9807 14.5876 84.0666 15.9623 83.2244L17.6426 82.2291L17.7953 82.4588L16.1151 83.4541C14.8167 84.2198 13.7475 86.0573 13.7475 87.5886V89.5027C13.7475 91.1105 12.6018 93.0246 11.2271 93.8668L3.20774 98.5371Z" fill="#42E8E0"/>
<path d="M0.15275 96.6996L0 96.4699L8.01935 91.7996C9.31772 91.0339 10.387 89.1964 10.387 87.6651V85.751C10.387 84.1432 11.5326 82.2291 12.9073 81.3869L14.5876 80.3916L14.7403 80.6213L13.0601 81.6166C11.7617 82.3822 10.6925 84.2198 10.6925 85.751V87.6651C10.6925 89.273 9.54684 91.187 8.1721 92.0292L0.15275 96.6996Z" fill="#42E8E0"/>
<path d="M75.0764 48.6943L63.6202 42.0333V55.3554L75.0764 62.0164L86.609 55.3554V42.0333L75.0764 48.6943Z" fill="#42E8E0"/>
<path d="M75.0764 62.0164L63.6202 55.3554V42.0333L75.0764 48.6943V62.0164Z" fill="#42E8E0"/>
<path d="M86.609 55.3554L75.0764 62.0164V48.6943L86.609 42.0333V55.3554Z" fill="#2FD3C7"/>
<path d="M75.0764 48.6943L63.6202 42.0333L75.0764 35.3723L86.609 42.0333L75.0764 48.6943Z" fill="#42E8E0"/>
<path d="M75.0764 48.6944L64.0784 42.3396L63.6202 42.5693L75.0764 49.2303L86.609 42.5693L86.0744 42.3396L75.0764 48.6944Z" fill="white"/>
<path d="M90.0458 57.1929L78.5132 50.5319V63.8539L90.0458 70.5149L101.578 63.8539V50.5319L90.0458 57.1929Z" fill="#42E8E0"/>
<path d="M90.0458 70.5149L78.5132 63.8539V50.5319L90.0458 57.1929V70.5149Z" fill="#42E8E0"/>
<path d="M101.578 63.8539L90.0458 70.5149V57.1929L101.578 50.5319V63.8539Z" fill="#2FD3C7"/>
<path d="M90.0458 57.1929L78.5132 50.5319L90.0458 43.8708L101.578 50.5319L90.0458 57.1929Z" fill="#42E8E0"/>
<path d="M90.0458 57.1929L79.0479 50.8381L78.5132 51.1444L90.0458 57.8054L101.578 51.1444L101.044 50.8381L90.0458 57.1929Z" fill="white"/>
<path d="M105.015 65.768L93.4827 59.1069V72.429L105.015 79.09L116.471 72.429V59.1069L105.015 65.768Z" fill="#42E8E0"/>
<path d="M105.015 79.09L93.4827 72.429V59.1069L105.015 65.768V79.09Z" fill="#42E8E0"/>
<path d="M116.471 72.429L105.015 79.09V65.768L116.471 59.1069V72.429Z" fill="#2FD3C7"/>
<path d="M105.015 65.768L93.4827 59.1069L105.015 52.4459L116.471 59.1069L105.015 65.768Z" fill="#42E8E0"/>
<path d="M105.015 65.768L93.9409 59.4132L93.4827 59.7194L105.015 66.3805L116.471 59.7194V59.1069L105.015 65.768Z" fill="white"/>
<path d="M60.1069 57.8054L48.6507 51.1444V64.4664L60.1069 71.1275L71.6395 64.4664V51.1444L60.1069 57.8054Z" fill="#42E8E0"/>
<path d="M60.1069 71.1275L48.6507 64.4664V51.1444L60.1069 57.8054V71.1275Z" fill="#42E8E0"/>
<path d="M71.6395 64.4664L60.1069 71.1275V57.8054L71.6395 51.1444V64.4664Z" fill="#2FD3C7"/>
<path d="M60.1069 57.8054L48.6507 51.1444L60.1069 44.4834L71.6395 51.1444L60.1069 57.8054Z" fill="#42E8E0"/>
<path d="M60.1069 57.8055L49.109 51.4507L48.6507 51.7569L60.1069 58.418L71.6395 51.7569L71.1813 51.4507L60.1069 57.8055Z" fill="white"/>
<path d="M75.0764 66.3805L63.6202 59.7195V73.0415L75.0764 79.7025L86.609 73.0415V59.7195L75.0764 66.3805Z" fill="#42E8E0"/>
<path d="M75.0764 79.7025L63.6202 73.0415V59.7195L75.0764 66.3805V79.7025Z" fill="#42E8E0"/>
<path d="M86.609 73.0415L75.0764 79.7025V66.3805L86.609 59.7195V73.0415Z" fill="#2FD3C7"/>
<path d="M75.0764 66.3805L63.6202 59.7195L75.0764 53.0585L86.609 59.7195L75.0764 66.3805Z" fill="#42E8E0"/>
<path d="M75.0764 66.3805L64.0784 59.9492L63.6202 60.2555L75.0764 66.9165L86.609 60.2555L86.0744 59.9492L75.0764 66.3805Z" fill="white"/>
<path d="M90.0458 74.879L78.5132 68.218V81.5401L90.0458 88.2011L101.578 81.5401V68.218L90.0458 74.879Z" fill="#42E8E0"/>
<path d="M90.0458 88.2011L78.5132 81.5401V68.218L90.0458 74.879V88.2011Z" fill="#42E8E0"/>
<path d="M101.578 81.5401L90.0458 88.2011V74.879L101.578 68.218V81.5401Z" fill="#2FD3C7"/>
<path d="M90.0458 74.879L78.5132 68.218L90.0458 61.557L101.578 68.218L90.0458 74.879Z" fill="#42E8E0"/>
<path d="M90.0458 74.879L79.0479 68.5243L78.5132 68.8305L90.0458 75.4915L101.578 68.8305V68.218L90.0458 74.879Z" fill="white"/>
<path d="M45.2139 66.9164L33.6813 60.2554V73.5774L45.2139 80.2384L56.6701 73.5774V60.2554L45.2139 66.9164Z" fill="#42E8E0"/>
<path d="M45.2139 80.2384L33.6813 73.5774V60.2554L45.2139 66.9164V80.2384Z" fill="#42E8E0"/>
<path d="M56.6701 73.5774L45.2139 80.2384V66.9164L56.6701 60.2554V73.5774Z" fill="#2FD3C7"/>
<path d="M45.2139 66.9164L33.6813 60.2554L45.2139 53.5944L56.6701 60.2554L45.2139 66.9164Z" fill="#42E8E0"/>
<path d="M45.2139 66.9164L33.6813 60.2554V60.8679L45.2139 67.5289L56.6701 60.8679L56.2118 60.5616L45.2139 66.9164Z" fill="white"/>
<path d="M60.1069 75.4915L48.6507 68.8304V82.1525L60.1069 88.8135L71.6395 82.1525V68.8304L60.1069 75.4915Z" fill="#42E8E0"/>
<path d="M60.1069 88.8135L48.6507 82.1525V68.8304L60.1069 75.4915V88.8135Z" fill="#42E8E0"/>
<path d="M71.6395 82.1525L60.1069 88.8135V75.4915L71.6395 68.8304V82.1525Z" fill="#2FD3C7"/>
<path d="M60.1069 75.4915L48.6507 68.8305L60.1069 62.1694L71.6395 68.8305L60.1069 75.4915Z" fill="#42E8E0"/>
<path d="M60.1069 75.4915L48.6507 68.8304V69.3664L60.1069 76.0274L71.6395 69.3664L71.1813 69.1367L60.1069 75.4915Z" fill="white"/>
<path d="M75.0764 84.0667L63.6202 77.4056V90.7277L75.0764 97.3887L86.609 90.7277V77.4056L75.0764 84.0667Z" fill="#42E8E0"/>
<path d="M75.0764 97.3887L63.6202 90.7277V77.4056L75.0764 84.0667V97.3887Z" fill="#42E8E0"/>
<path d="M86.609 90.7277L75.0764 97.3887V84.0667L86.609 77.4056V90.7277Z" fill="#2FD3C7"/>
<path d="M75.0764 84.0667L63.6202 77.4056L75.0764 70.7446L86.609 77.4056L75.0764 84.0667Z" fill="#42E8E0"/>
<path d="M75.0764 84.0667L63.6202 77.4056V77.9416L75.0764 84.6026L86.609 77.9416V77.4056L75.0764 84.0667Z" fill="white"/>
<path d="M75.0764 31.0082L63.6202 24.3472V37.6692L75.0764 44.3302L86.609 37.6692V24.3472L75.0764 31.0082Z" fill="#42E8E0"/>
<path d="M75.0764 44.3302L63.6202 37.6692V24.3472L75.0764 31.0082V44.3302Z" fill="#42E8E0"/>
<path d="M86.609 37.6692L75.0764 44.3302V31.0082L86.609 24.3472V37.6692Z" fill="#2FD3C7"/>
<path d="M75.0764 31.0082L63.6202 24.3472L75.0764 17.6862L86.609 24.3472L75.0764 31.0082Z" fill="#42E8E0"/>
<path d="M75.0764 31.0082L64.0784 24.6534L63.6202 24.8831L75.0764 31.5441L86.609 24.8831L86.0744 24.6534L75.0764 31.0082Z" fill="white"/>
<path opacity="0.7" d="M75.0764 81.8463L67.2098 77.329L75.0764 72.8118L82.943 77.329L75.0764 81.8463Z" fill="#18B2A3"/>
<path opacity="0.7" d="M60.1069 73.3477L52.3167 68.7539L60.1069 64.2367L67.9735 68.7539L60.1069 73.3477Z" fill="#18B2A3"/>
<path opacity="0.7" d="M90.0458 72.7352L82.1792 68.218L90.0458 63.6241L97.9124 68.218L90.0458 72.7352Z" fill="#18B2A3"/>
<path opacity="0.7" d="M105.015 63.7008L97.1487 59.1835L105.015 54.5897L112.882 59.1835L105.015 63.7008Z" fill="#18B2A3"/>
<path opacity="0.7" d="M45.2139 64.7727L37.3473 60.2554L45.2139 55.6616L53.0805 60.2554L45.2139 64.7727Z" fill="#18B2A3"/>
<path d="M90.0458 39.5833L78.5132 32.9222V46.2443L90.0458 52.9053L101.578 46.2443V32.9222L90.0458 39.5833Z" fill="#42E8E0"/>
<path d="M90.0458 52.9053L78.5132 46.2443V32.9222L90.0458 39.5833V52.9053Z" fill="#42E8E0"/>
<path d="M101.578 46.2443L90.0458 52.9053V39.5833L101.578 32.9222V46.2443Z" fill="#2FD3C7"/>
<path d="M90.0458 39.5833L78.5132 32.9222L90.0458 26.2612L101.578 32.9222L90.0458 39.5833Z" fill="#42E8E0"/>
<path d="M90.0458 39.5833L79.0479 33.152L78.5132 33.4582L90.0458 40.1192L101.578 33.4582L101.044 33.152L90.0458 39.5833Z" fill="white"/>
<path d="M105.015 48.0818L93.4827 41.4208V54.7428L105.015 61.4038L116.471 54.7428V41.4208L105.015 48.0818Z" fill="#42E8E0"/>
<path d="M105.015 61.4038L93.4827 54.7428V41.4208L105.015 48.0818V61.4038Z" fill="#42E8E0"/>
<path d="M116.471 54.7428L105.015 61.4038V48.0818L116.471 41.4208V54.7428Z" fill="#2FD3C7"/>
<path d="M105.015 48.0818L93.4827 41.4208L105.015 34.7598L116.471 41.4208L105.015 48.0818Z" fill="#42E8E0"/>
<path d="M105.015 48.0818L93.9409 41.727L93.4827 42.0333L105.015 48.6943L116.471 42.0333V41.4208L105.015 48.0818Z" fill="white"/>
<path d="M60.1069 40.1193L48.6507 33.4583V46.7803L60.1069 53.4413L71.6395 46.7803V33.4583L60.1069 40.1193Z" fill="#42E8E0"/>
<path d="M60.1069 53.4413L48.6507 46.7803V33.4583L60.1069 40.1193V53.4413Z" fill="#42E8E0"/>
<path d="M71.6395 46.7803L60.1069 53.4413V40.1193L71.6395 33.4583V46.7803Z" fill="#2FD3C7"/>
<path d="M60.1069 40.1193L48.6507 33.4583L60.1069 26.7972L71.6395 33.4583L60.1069 40.1193Z" fill="#42E8E0"/>
<path d="M60.1069 40.1193L49.109 33.7645L48.6507 34.0708L60.1069 40.7318L71.6395 34.0708L71.1813 33.7645L60.1069 40.1193Z" fill="white"/>
<path d="M75.0764 48.6943L63.6202 42.0333V55.3554L75.0764 62.0164L86.609 55.3554V42.0333L75.0764 48.6943Z" fill="#42E8E0"/>
<path d="M75.0764 62.0164L63.6202 55.3554V42.0333L75.0764 48.6943V62.0164Z" fill="#42E8E0"/>
<path d="M86.609 55.3554L75.0764 62.0164V48.6943L86.609 42.0333V55.3554Z" fill="#2FD3C7"/>
<path d="M75.0764 48.6943L63.6202 42.0333L75.0764 35.3723L86.609 42.0333L75.0764 48.6943Z" fill="#42E8E0"/>
<path d="M75.0764 48.6944L64.0784 42.3396L63.6202 42.5693L75.0764 49.2303L86.609 42.5693L86.0744 42.3396L75.0764 48.6944Z" fill="white"/>
<path d="M90.0458 57.1929L78.5132 50.5319V63.8539L90.0458 70.5149L101.578 63.8539V50.5319L90.0458 57.1929Z" fill="#42E8E0"/>
<path d="M90.0458 70.5149L78.5132 63.8539V50.5319L90.0458 57.1929V70.5149Z" fill="#42E8E0"/>
<path d="M101.578 63.8539L90.0458 70.5149V57.1929L101.578 50.5319V63.8539Z" fill="#2FD3C7"/>
<path d="M90.0458 57.1929L78.5132 50.5319L90.0458 43.8708L101.578 50.5319L90.0458 57.1929Z" fill="#42E8E0"/>
<path d="M90.0458 57.1929L79.0479 50.8381L78.5132 51.1444L90.0458 57.8054L101.578 51.1444V50.5319L90.0458 57.1929Z" fill="white"/>
<path d="M45.2139 49.2302L33.6813 42.5692V55.8912L45.2139 62.5523L56.6701 55.8912V42.5692L45.2139 49.2302Z" fill="#42E8E0"/>
<path d="M45.2139 62.5523L33.6813 55.8912V42.5692L45.2139 49.2302V62.5523Z" fill="#42E8E0"/>
<path d="M56.6701 55.8912L45.2139 62.5523V49.2302L56.6701 42.5692V55.8912Z" fill="#2FD3C7"/>
<path d="M45.2139 49.2302L33.6813 42.5692L45.2139 35.9082L56.6701 42.5692L45.2139 49.2302Z" fill="#42E8E0"/>
<path d="M45.2139 49.2303L34.2159 42.8755L33.6813 43.1817L45.2139 49.8428L56.6701 43.1817L56.2118 42.8755L45.2139 49.2303Z" fill="white"/>
<path d="M60.1069 57.8054L48.6507 51.1444V64.4664L60.1069 71.1275L71.6395 64.4664V51.1444L60.1069 57.8054Z" fill="#42E8E0"/>
<path d="M60.1069 71.1275L48.6507 64.4664V51.1444L60.1069 57.8054V71.1275Z" fill="#42E8E0"/>
<path d="M71.6395 64.4664L60.1069 71.1275V57.8054L71.6395 51.1444V64.4664Z" fill="#2FD3C7"/>
<path d="M60.1069 57.8054L48.6507 51.1444L60.1069 44.4834L71.6395 51.1444L60.1069 57.8054Z" fill="#42E8E0"/>
<path d="M60.1069 57.8054L48.6507 51.1444V51.7569L60.1069 58.4179L71.6395 51.7569L71.1813 51.4507L60.1069 57.8054Z" fill="white"/>
<path d="M75.0764 66.3805L63.6202 59.7195V73.0415L75.0764 79.7025L86.609 73.0415V59.7195L75.0764 66.3805Z" fill="#42E8E0"/>
<path d="M75.0764 79.7025L63.6202 73.0415V59.7195L75.0764 66.3805V79.7025Z" fill="#42E8E0"/>
<path d="M86.609 73.0415L75.0764 79.7025V66.3805L86.609 59.7195V73.0415Z" fill="#2FD3C7"/>
<path d="M75.0764 66.3805L63.6202 59.7195L75.0764 53.0585L86.609 59.7195L75.0764 66.3805Z" fill="#42E8E0"/>
<path d="M75.0764 66.3805L63.6202 59.7195V60.2554L75.0764 66.9164L86.609 60.2554V59.7195L75.0764 66.3805Z" fill="white"/>
<path opacity="0.7" d="M105.015 46.0911L97.1487 41.5739L105.015 37.0566L112.882 41.5739L105.015 46.0911Z" fill="#18B2A3"/>
<path opacity="0.7" d="M45.2139 47.163L37.3473 42.6458L45.2139 38.052L53.0805 42.6458L45.2139 47.163Z" fill="#18B2A3"/>
<path d="M75.0764 13.322L63.6202 6.66101V19.983L75.0764 26.6441L86.609 19.983V6.66101L75.0764 13.322Z" fill="#42E8E0"/>
<path d="M75.0764 26.6441L63.6202 19.983V6.66101L75.0764 13.322V26.6441Z" fill="#42E8E0"/>
<path d="M86.609 19.983L75.0764 26.6441V13.322L86.609 6.66101V19.983Z" fill="#2FD3C7"/>
<path d="M75.0764 0L86.609 6.66102L75.0764 13.322L63.6202 6.66102L75.0764 0Z" fill="#42E8E0"/>
<path d="M75.0764 13.322L63.6202 6.66101V7.27352L75.0764 13.9345L86.609 7.27352V6.66101L75.0764 13.322Z" fill="white"/>
<path d="M90.0458 21.8971L78.5132 15.2361V28.5581L90.0458 35.2191L101.578 28.5581V15.2361L90.0458 21.8971Z" fill="#42E8E0"/>
<path d="M90.0458 35.2191L78.5132 28.5581V15.2361L90.0458 21.8971V35.2191Z" fill="#42E8E0"/>
<path d="M101.578 28.5581L90.0458 35.2191V21.8971L101.578 15.2361V28.5581Z" fill="#2FD3C7"/>
<path d="M90.0458 21.8971L78.5132 15.2361L90.0458 8.57507L101.578 15.2361L90.0458 21.8971Z" fill="#42E8E0"/>
<path d="M90.0458 21.8971L78.5132 15.2361V15.772L90.0458 22.433L101.578 15.772V15.2361L90.0458 21.8971Z" fill="white"/>
<path d="M105.015 30.3956L93.4827 23.7346V37.0567L105.015 43.7177L116.471 37.0567V23.7346L105.015 30.3956Z" fill="#42E8E0"/>
<path d="M105.015 43.7177L93.4827 37.0567V23.7346L105.015 30.3956V43.7177Z" fill="#42E8E0"/>
<path d="M116.471 37.0567L105.015 43.7177V30.3956L116.471 23.7346V37.0567Z" fill="#2FD3C7"/>
<path d="M105.015 30.3956L93.4827 23.7346L105.015 17.0736L116.471 23.7346L105.015 30.3956Z" fill="#42E8E0"/>
<path d="M105.015 30.3956L93.4827 23.7346V24.3471L105.015 31.0081L116.471 24.3471V23.7346L105.015 30.3956Z" fill="white"/>
<path d="M60.1069 22.4331L48.6507 15.7721V29.0941L60.1069 35.7551L71.6395 29.0941V15.7721L60.1069 22.4331Z" fill="#42E8E0"/>
<path d="M60.1069 35.7551L48.6507 29.0941V15.7721L60.1069 22.4331V35.7551Z" fill="#42E8E0"/>
<path d="M71.6395 29.0941L60.1069 35.7551V22.4331L71.6395 15.7721V29.0941Z" fill="#2FD3C7"/>
<path d="M60.1069 22.4331L48.6507 15.7721L60.1069 9.11108L71.6395 15.7721L60.1069 22.4331Z" fill="#42E8E0"/>
<path d="M60.1069 22.4331L48.6507 15.7721V16.3846L60.1069 23.0456L71.6395 16.3846V15.7721L60.1069 22.4331Z" fill="white"/>
<path d="M45.2139 31.5441L33.6813 24.8831V38.2051L45.2139 44.8661L56.6701 38.2051V24.8831L45.2139 31.5441Z" fill="#42E8E0"/>
<path d="M45.2139 44.8661L33.6813 38.2051V24.8831L45.2139 31.5441V44.8661Z" fill="#42E8E0"/>
<path d="M56.6701 38.2051L45.2139 44.8661V31.5441L56.6701 24.8831V38.2051Z" fill="#2FD3C7"/>
<path d="M45.2139 31.5441L33.6813 24.8831L45.2139 18.222L56.6701 24.8831L45.2139 31.5441Z" fill="#42E8E0"/>
<path d="M45.2139 31.5441L33.6813 24.8831V25.4956L45.2139 32.1566L56.6701 25.4956V24.8831L45.2139 31.5441Z" fill="white"/>
</g>
<defs>
<linearGradient id="paint0_linear" x1="-17.0954" y1="101.167" x2="140.998" y2="101.167" gradientUnits="userSpaceOnUse">
<stop stop-color="#5761D7"/>
<stop offset="0.1645" stop-color="#5E67DA"/>
<stop offset="0.4051" stop-color="#727AE2"/>
<stop offset="0.6924" stop-color="#9297EE"/>
<stop offset="1" stop-color="#BCBEFF"/>
</linearGradient>
<linearGradient id="paint1_linear" x1="27.6451" y1="79.7517" x2="122.537" y2="79.7517" gradientUnits="userSpaceOnUse">
<stop stop-color="#42E8E0"/>
<stop offset="0.1507" stop-color="#43E3E0"/>
<stop offset="0.3285" stop-color="#45D5DF"/>
<stop offset="0.5199" stop-color="#49BDDD"/>
<stop offset="0.7209" stop-color="#4E9CDB"/>
<stop offset="0.9274" stop-color="#5472D8"/>
<stop offset="1" stop-color="#5761D7"/>
</linearGradient>
<linearGradient id="paint2_linear" x1="75.0902" y1="62.5591" x2="122.537" y2="62.5591" gradientUnits="userSpaceOnUse">
<stop stop-color="#42E8E0"/>
<stop offset="0.1507" stop-color="#43E3E0"/>
<stop offset="0.3285" stop-color="#45D5DF"/>
<stop offset="0.5199" stop-color="#49BDDD"/>
<stop offset="0.7209" stop-color="#4E9CDB"/>
<stop offset="0.9274" stop-color="#5472D8"/>
<stop offset="1" stop-color="#5761D7"/>
</linearGradient>
<linearGradient id="paint3_linear" x1="27.6451" y1="62.5587" x2="75.0916" y2="62.5587" gradientUnits="userSpaceOnUse">
<stop stop-color="#42E8E0"/>
<stop offset="0.1507" stop-color="#43E3E0"/>
<stop offset="0.3285" stop-color="#45D5DF"/>
<stop offset="0.5199" stop-color="#49BDDD"/>
<stop offset="0.7209" stop-color="#4E9CDB"/>
<stop offset="0.9274" stop-color="#5472D8"/>
<stop offset="1" stop-color="#5761D7"/>
</linearGradient>
<linearGradient id="paint4_linear" x1="27.6451" y1="72.8271" x2="122.537" y2="72.8271" gradientUnits="userSpaceOnUse">
<stop stop-color="#42E8E0"/>
<stop offset="0.1507" stop-color="#43E3E0"/>
<stop offset="0.3285" stop-color="#45D5DF"/>
<stop offset="0.5199" stop-color="#49BDDD"/>
<stop offset="0.7209" stop-color="#4E9CDB"/>
<stop offset="0.9274" stop-color="#5472D8"/>
<stop offset="1" stop-color="#5761D7"/>
</linearGradient>
<linearGradient id="paint5_linear" x1="75.0916" y1="90.0196" x2="122.537" y2="90.0196" gradientUnits="userSpaceOnUse">
<stop stop-color="#42E8E0"/>
<stop offset="0.1507" stop-color="#43E3E0"/>
<stop offset="0.3285" stop-color="#45D5DF"/>
<stop offset="0.5199" stop-color="#49BDDD"/>
<stop offset="0.7209" stop-color="#4E9CDB"/>
<stop offset="0.9274" stop-color="#5472D8"/>
<stop offset="1" stop-color="#5761D7"/>
</linearGradient>
<linearGradient id="paint6_linear" x1="27.6451" y1="90.0191" x2="75.0916" y2="90.0191" gradientUnits="userSpaceOnUse">
<stop stop-color="#42E8E0"/>
<stop offset="0.1507" stop-color="#43E3E0"/>
<stop offset="0.3285" stop-color="#45D5DF"/>
<stop offset="0.5199" stop-color="#49BDDD"/>
<stop offset="0.7209" stop-color="#4E9CDB"/>
<stop offset="0.9274" stop-color="#5472D8"/>
<stop offset="1" stop-color="#5761D7"/>
</linearGradient>
<clipPath id="clip0">
<rect width="150" height="131" fill="white"/>
</clipPath>
</defs>
</svg>
