<svg width="919" height="598" viewBox="0 0 919 598" fill="none" xmlns="http://www.w3.org/2000/svg">
<path opacity="0.2" d="M514.592 171.957C523.04 225.112 533.309 276.235 497.186 322.71C481.019 343.551 452.543 348.489 427.781 354.951C370.975 369.62 311.11 372.888 253.285 362.721C210.971 355.242 169.823 341.299 127.146 336.216C51.0405 327.139 -1.83283 346.237 0.934643 427.423C1.00747 430.328 1.15313 433.305 1.37162 436.282C11.2763 580.935 157.443 590.375 265.593 596.112C354.006 600.832 446.862 606.351 500.755 524.076C528.211 482.176 546.928 432.506 586.62 401.789C655.078 348.852 751.357 384.434 830.085 363.956C881.137 350.74 911.943 304.846 917.114 254.159C923.305 193.887 904.078 136.375 861.473 92.9497C834.746 65.7183 801.827 45.0951 767.234 29.0468C723.974 9.00454 675.98 -4.42958 628.714 1.88808C581.449 8.20575 535.276 37.2525 518.525 81.8393C507.892 110.378 509.859 141.966 514.592 171.957Z" fill="url(#paint0_linear)"/>
<defs>
<linearGradient id="paint0_linear" x1="-188.679" y1="408.542" x2="1223.47" y2="511.324" gradientUnits="userSpaceOnUse">
<stop stop-color="#021652"/>
<stop offset="0.3106" stop-color="#0056AD"/>
<stop offset="0.7223" stop-color="#38C4DD"/>
<stop offset="1" stop-color="#68EFD8"/>
</linearGradient>
</defs>
</svg>
