<svg width="99" height="79" viewBox="0 0 99 79" fill="none" xmlns="http://www.w3.org/2000/svg">
<g clip-path="url(#clip0)">
<path d="M52.1977 78.2513L97.4943 52.2923C98.4981 51.6683 99 51.0443 99 50.2955V42.1833L97.4943 43.5562L96.1141 42.8073C96.2395 42.6825 96.365 42.4329 96.365 42.4329C96.2395 42.3081 95.7376 41.3097 95.7376 41.3097L63.7414 22.4645L53.5779 16.5988L49.5627 15.4756L3.13688 42.0585L3.26236 43.1817L2.0076 43.9306L0 42.9321V51.0443C0 51.6683 0.376426 52.1675 1.0038 52.5419L46.0494 78.3761C47.6806 79.3745 50.4411 79.2497 52.1977 78.2513ZM70.6426 58.158L50.1901 69.2655L48.4335 69.1407L14.0532 50.1707L4.51711 45.3034L49.1863 19.7189C49.5627 19.4693 50.1901 19.4693 50.5665 19.7189L94.1065 44.6794L70.6426 58.158Z" fill="url(#paint0_linear)"/>
<path d="M52.1977 78.2513L97.4943 52.2923C98.4981 51.6683 99 51.0443 99 50.2955V42.1833L97.4943 43.5562L96.1141 42.8073C96.2395 42.6825 96.365 42.4329 96.365 42.4329C96.2395 42.3081 95.7376 41.3097 95.7376 41.3097L63.7414 22.4645L53.5779 16.5988L49.5627 15.4756L3.13688 42.0585L3.26236 43.1817L2.0076 43.9306L0 42.9321V51.0443C0 51.6683 0.376426 52.1675 1.0038 52.5419L46.0494 78.3761C47.6806 79.3745 50.4411 79.2497 52.1977 78.2513ZM70.6426 58.158L50.1901 69.2655L48.4335 69.1407L14.0532 50.1707L4.51711 45.3034L49.1863 19.7189C49.5627 19.4693 50.1901 19.4693 50.5665 19.7189L94.1065 44.6794L70.6426 58.158Z" fill="url(#paint1_linear)"/>
<path opacity="0.6" d="M48.9354 79.0001V69.1407H50.0646L70.5171 58.0332L94.1065 44.4298L93.3536 43.9306C94.1065 43.5562 98.2472 42.3081 99 41.9337V49.4219V50.0459C99 50.7947 98.4981 51.4187 97.4943 52.0427L52.1977 78.2513C51.3194 78.7505 50.0646 79.0001 48.9354 79.0001Z" fill="#0F054C"/>
<path d="M52.1972 70.0142L97.4937 44.0553C99.2504 43.0569 99.5014 41.4345 97.9957 40.5608L52.8245 14.6019C51.3188 13.7283 48.5584 13.8531 46.8017 14.8515L1.50516 40.8104C-0.251492 41.8089 -0.502443 43.4313 1.00326 44.3049L46.0489 70.139C47.6801 71.1375 50.4405 71.0127 52.1972 70.0142ZM49.6877 68.5166C49.3112 68.7662 48.6839 68.7662 48.3074 68.5166L4.01467 43.0569C3.63824 42.8073 3.76372 42.5577 4.14014 42.3081L49.3112 16.474C49.6877 16.2243 50.315 16.2243 50.6915 16.474L94.9842 41.9337C95.3607 42.1833 95.2352 42.4329 94.8588 42.6825L49.6877 68.5166Z" fill="url(#paint2_linear)"/>
<path d="M52.1972 70.0142L97.4937 44.0553C99.2504 43.0569 99.5014 41.4345 97.9957 40.5608L52.8245 14.6019C51.3188 13.7283 48.5584 13.8531 46.8017 14.8515L1.50516 40.8104C-0.251492 41.8089 -0.502443 43.4313 1.00326 44.3049L46.0489 70.139C47.6801 71.1375 50.4405 71.0127 52.1972 70.0142ZM49.6877 68.5166C49.3112 68.7662 48.6839 68.7662 48.3074 68.5166L4.01467 43.0569C3.63824 42.8073 3.76372 42.5577 4.14014 42.3081L49.3112 16.474C49.6877 16.2243 50.315 16.2243 50.6915 16.474L94.9842 41.9337C95.3607 42.1833 95.2352 42.4329 94.8588 42.6825L49.6877 68.5166Z" fill="url(#paint3_linear)"/>
<path d="M94.9848 41.3097L50.692 15.9748C50.3156 15.7252 49.6882 15.85 49.3118 15.9748L4.14069 41.8089C3.76427 42.0585 3.76427 42.3081 3.88974 42.5577C3.88974 42.4329 4.01522 42.4329 4.14069 42.3081L49.3118 16.474C49.6882 16.2244 50.3156 16.2244 50.692 16.474L94.9848 41.9337C95.1103 41.9337 95.1103 42.0585 95.1103 42.0585C95.2357 41.6841 95.2357 41.5593 94.9848 41.3097Z" fill="#42E8E0"/>
<path d="M97.4945 43.5562L52.198 69.5151C50.4413 70.5135 47.6809 70.6383 46.1752 69.7647L1.00405 43.9306C0.376674 43.5562 0.000248564 43.057 0.000248564 42.6826C-0.125227 43.3066 0.251199 43.9306 1.00405 44.4298L46.0497 70.2639C47.5554 71.1376 50.3158 71.0128 52.0725 70.0143L97.3691 44.0554C98.4984 43.4314 99.0003 42.5578 98.8748 41.809C98.8748 42.433 98.3729 43.057 97.4945 43.5562Z" fill="#42E8E0"/>
<path d="M50.692 19.594C50.3156 19.3444 49.6882 19.4692 49.3118 19.594L6.27379 44.3049L4.14071 43.0569C3.76428 42.8073 3.88976 42.5577 4.26618 42.3081L49.4373 16.4739C49.8137 16.2243 50.4411 16.2243 50.8175 16.4739L95.1103 41.9337C95.4867 42.1833 95.3612 42.4329 94.9848 42.6825L92.8517 43.9305L50.692 19.594Z" fill="#251C72"/>
<path opacity="0.7" d="M94.8593 42.5577C95.2357 42.3081 95.3612 41.9337 94.9848 41.8089L50.692 16.3492C50.3156 16.0996 49.6882 16.2244 49.3118 16.3492L4.14069 42.1833C3.76427 42.4329 3.63879 42.8073 4.01522 42.9321L48.308 68.3918C48.6844 68.6414 49.3118 68.5166 49.6882 68.3918L94.8593 42.5577Z" fill="#42E8E0"/>
<path d="M52.1977 64.1485L97.4943 38.1895C98.4981 37.5655 99 36.9415 99 36.1927V28.0805L97.4943 29.4534L96.1141 28.7046C96.2395 28.5798 96.365 28.3301 96.365 28.3301C96.2395 28.2053 95.7376 27.2069 95.7376 27.2069L63.7414 8.48655L53.5779 2.49603L49.5627 1.3728L3.13688 27.9557L3.26236 29.079L2.0076 29.8278L0 28.8294V36.9415C0 37.5655 0.376426 38.0647 1.0038 38.4392L46.0494 64.2733C47.6806 65.2717 50.4411 65.1469 52.1977 64.1485ZM70.6426 44.1801L50.1901 55.2875L48.4335 55.1627L14.0532 36.0679L4.64259 31.2006L49.3118 5.61609C49.6882 5.36648 50.3156 5.36648 50.692 5.61609L94.2319 30.5766L70.6426 44.1801Z" fill="url(#paint4_linear)"/>
<path d="M52.1977 64.1485L97.4943 38.1895C98.4981 37.5655 99 36.9415 99 36.1927V28.0805L97.4943 29.4534L96.1141 28.7046C96.2395 28.5798 96.365 28.3301 96.365 28.3301C96.2395 28.2053 95.7376 27.2069 95.7376 27.2069L63.7414 8.48655L53.5779 2.49603L49.5627 1.3728L3.13688 27.9557L3.26236 29.079L2.0076 29.8278L0 28.8294V36.9415C0 37.5655 0.376426 38.0647 1.0038 38.4392L46.0494 64.2733C47.6806 65.2717 50.4411 65.1469 52.1977 64.1485ZM70.6426 44.1801L50.1901 55.2875L48.4335 55.1627L14.0532 36.0679L4.64259 31.2006L49.3118 5.61609C49.6882 5.36648 50.3156 5.36648 50.692 5.61609L94.2319 30.5766L70.6426 44.1801Z" fill="url(#paint5_linear)"/>
<path opacity="0.6" d="M48.9354 65.0222V55.1628H50.0646L70.5171 44.0553L94.1065 30.4519L93.3536 29.9527C94.1065 29.5782 98.2472 28.3302 99 27.9558V35.444V36.068C99 36.8168 98.4981 37.4408 97.4943 38.0648L52.1977 64.1485C51.3194 64.6478 50.0646 65.0222 48.9354 65.0222Z" fill="#0F054C"/>
<path d="M52.1969 55.911L97.4934 29.9521C99.2501 28.9537 99.501 27.3313 97.9953 26.4576L52.8242 0.623523C51.3185 -0.250095 48.5581 -0.125292 46.8014 0.873128L1.50486 26.8321C-0.251797 27.8305 -0.502748 29.4529 1.00296 30.3265L46.1741 56.1606C47.6798 57.0343 50.4402 56.9095 52.1969 55.911ZM49.6874 54.4134C49.3109 54.663 48.6836 54.663 48.3071 54.4134L4.01436 29.0785C3.63794 28.8289 3.76341 28.5793 4.13984 28.3297L49.3109 2.49556C49.6874 2.24596 50.3147 2.24596 50.6912 2.49556L94.9839 27.9553C95.3604 28.2049 95.2349 28.4545 94.8585 28.7041L49.6874 54.4134Z" fill="url(#paint6_linear)"/>
<path d="M52.1969 55.911L97.4934 29.9521C99.2501 28.9537 99.501 27.3313 97.9953 26.4576L52.8242 0.623523C51.3185 -0.250095 48.5581 -0.125292 46.8014 0.873128L1.50486 26.8321C-0.251797 27.8305 -0.502748 29.4529 1.00296 30.3265L46.1741 56.1606C47.6798 57.0343 50.4402 56.9095 52.1969 55.911ZM49.6874 54.4134C49.3109 54.663 48.6836 54.663 48.3071 54.4134L4.01436 29.0785C3.63794 28.8289 3.76341 28.5793 4.13984 28.3297L49.3109 2.49556C49.6874 2.24596 50.3147 2.24596 50.6912 2.49556L94.9839 27.9553C95.3604 28.2049 95.2349 28.4545 94.8585 28.7041L49.6874 54.4134Z" fill="url(#paint7_linear)"/>
<path d="M94.9848 27.3317L50.692 1.87201C50.3156 1.62241 49.6882 1.74721 49.3118 1.87201L4.14069 27.7061C3.76427 27.9557 3.76427 28.2053 3.88974 28.455C3.88974 28.3301 4.01522 28.3302 4.14069 28.2053L49.3118 2.37122C49.6882 2.12162 50.3156 2.12162 50.692 2.37122L94.9848 27.8309C95.1103 27.8309 95.1103 27.9557 95.1103 27.9557C95.2357 27.7061 95.2357 27.4565 94.9848 27.3317Z" fill="#42E8E0"/>
<path d="M97.4945 29.5782L52.198 55.5371C50.4413 56.5356 47.6809 56.6604 46.1752 55.7867L1.00405 29.8278C0.376674 29.4534 0.000248564 28.9542 0.000248564 28.5798C-0.125227 29.2038 0.251199 29.8278 1.00405 30.327L46.1752 56.1612C47.6809 57.0348 50.4413 56.91 52.198 55.9115L97.4945 29.9526C98.6238 29.3286 99.1257 28.455 99.0003 27.7062C98.8748 28.455 98.3729 29.079 97.4945 29.5782Z" fill="#42E8E0"/>
<path d="M50.692 5.61611C50.3156 5.3665 49.6882 5.4913 49.3118 5.61611L6.27379 30.327L4.14071 29.079C3.76428 28.8294 3.88976 28.5798 4.26618 28.3302L49.4373 2.49604C49.8137 2.24644 50.4411 2.24644 50.8175 2.49604L95.1103 27.9558C95.4867 28.2054 95.3612 28.455 94.9848 28.7046L92.8517 29.9526L50.692 5.61611Z" fill="#251C72"/>
<path opacity="0.7" d="M94.8593 28.5798C95.2357 28.3302 95.3612 27.9558 94.9848 27.831L50.692 2.37128C50.3156 2.12168 49.6882 2.24648 49.3118 2.37128L4.14069 28.2054C3.76427 28.455 3.63879 28.8294 4.01522 28.9542L48.308 54.4139C48.6844 54.6635 49.3118 54.5387 49.6882 54.4139L94.8593 28.5798Z" fill="#42E8E0"/>
<path d="M89.0875 39.188C89.0875 39.6872 88.711 40.1864 88.3346 40.436C87.9582 40.6856 87.5818 40.436 87.5818 40.0616C87.5818 39.6872 87.9582 39.0632 88.3346 38.8136C88.711 38.4392 89.0875 38.6888 89.0875 39.188Z" fill="#42E8E0"/>
<path d="M91.597 37.6903C91.597 38.1895 91.2206 38.6887 90.8441 38.9383C90.4677 39.1879 90.0913 38.9383 90.0913 38.5639C90.0913 38.1895 90.4677 37.5654 90.8441 37.3158C91.346 37.0662 91.597 37.191 91.597 37.6903Z" fill="#42E8E0"/>
<path d="M94.2319 36.1927C94.2319 36.6919 93.8555 37.1911 93.4791 37.4407C93.1027 37.6903 92.7262 37.4407 92.7262 37.0663C92.7262 36.5671 93.1027 36.0679 93.4791 35.8183C93.8555 35.5687 94.2319 35.6935 94.2319 36.1927Z" fill="#42E8E0"/>
<path d="M89.0875 53.5403C89.0875 54.0395 88.711 54.5387 88.3346 54.7883C87.9582 55.0379 87.5818 54.7883 87.5818 54.4139C87.5818 53.9147 87.9582 53.4155 88.3346 53.1659C88.711 52.7915 89.0875 53.0411 89.0875 53.5403Z" fill="#42E8E0"/>
<path d="M91.597 52.0427C91.597 52.5419 91.2206 53.0411 90.8441 53.2907C90.4677 53.5403 90.0913 53.2907 90.0913 52.9163C90.0913 52.4171 90.4677 51.9179 90.8441 51.6683C91.346 51.4187 91.597 51.5435 91.597 52.0427Z" fill="#42E8E0"/>
<path d="M94.2319 50.545C94.2319 51.0442 93.8555 51.5434 93.4791 51.793C93.1027 52.0426 92.7262 51.793 92.7262 51.4186C92.7262 50.9194 93.1027 50.4202 93.4791 50.1706C93.8555 49.921 94.2319 50.0458 94.2319 50.545Z" fill="#42E8E0"/>
</g>
<defs>
<linearGradient id="paint0_linear" x1="41.0822" y1="32.2328" x2="63.887" y2="72.0382" gradientUnits="userSpaceOnUse">
<stop stop-color="#BCBEFF"/>
<stop offset="0.1659" stop-color="#B6B8FC"/>
<stop offset="0.3956" stop-color="#A4A8F5"/>
<stop offset="0.6625" stop-color="#868DEA"/>
<stop offset="0.9554" stop-color="#5E67DA"/>
<stop offset="1" stop-color="#5761D7"/>
</linearGradient>
<linearGradient id="paint1_linear" x1="41.0822" y1="32.2328" x2="63.887" y2="72.0382" gradientUnits="userSpaceOnUse">
<stop stop-color="#706EC4"/>
<stop offset="0.0222208" stop-color="#6D6BC2"/>
<stop offset="0.2509" stop-color="#5651AC"/>
<stop offset="0.4865" stop-color="#463F9D"/>
<stop offset="0.7314" stop-color="#3C3494"/>
<stop offset="1" stop-color="#393091"/>
</linearGradient>
<linearGradient id="paint2_linear" x1="36.8538" y1="20.5881" x2="61.9609" y2="64.4122" gradientUnits="userSpaceOnUse">
<stop stop-color="#BCBEFF"/>
<stop offset="0.1659" stop-color="#B6B8FC"/>
<stop offset="0.3956" stop-color="#A4A8F5"/>
<stop offset="0.6625" stop-color="#868DEA"/>
<stop offset="0.9554" stop-color="#5E67DA"/>
<stop offset="1" stop-color="#5761D7"/>
</linearGradient>
<linearGradient id="paint3_linear" x1="33.3579" y1="14.5514" x2="78.6553" y2="93.6171" gradientUnits="userSpaceOnUse">
<stop stop-color="#706EC4"/>
<stop offset="0.0222208" stop-color="#6D6BC2"/>
<stop offset="0.2509" stop-color="#5651AC"/>
<stop offset="0.4865" stop-color="#463F9D"/>
<stop offset="0.7314" stop-color="#3C3494"/>
<stop offset="1" stop-color="#393091"/>
</linearGradient>
<linearGradient id="paint4_linear" x1="41.0821" y1="18.1845" x2="63.8868" y2="57.9898" gradientUnits="userSpaceOnUse">
<stop stop-color="#BCBEFF"/>
<stop offset="0.1659" stop-color="#B6B8FC"/>
<stop offset="0.3956" stop-color="#A4A8F5"/>
<stop offset="0.6625" stop-color="#868DEA"/>
<stop offset="0.9554" stop-color="#5E67DA"/>
<stop offset="1" stop-color="#5761D7"/>
</linearGradient>
<linearGradient id="paint5_linear" x1="41.0821" y1="18.1845" x2="63.8868" y2="57.9898" gradientUnits="userSpaceOnUse">
<stop stop-color="#706EC4"/>
<stop offset="0.0222208" stop-color="#6D6BC2"/>
<stop offset="0.2509" stop-color="#5651AC"/>
<stop offset="0.4865" stop-color="#463F9D"/>
<stop offset="0.7314" stop-color="#3C3494"/>
<stop offset="1" stop-color="#393091"/>
</linearGradient>
<linearGradient id="paint6_linear" x1="36.8534" y1="6.53938" x2="61.9605" y2="50.3635" gradientUnits="userSpaceOnUse">
<stop stop-color="#BCBEFF"/>
<stop offset="0.1659" stop-color="#B6B8FC"/>
<stop offset="0.3956" stop-color="#A4A8F5"/>
<stop offset="0.6625" stop-color="#868DEA"/>
<stop offset="0.9554" stop-color="#5E67DA"/>
<stop offset="1" stop-color="#5761D7"/>
</linearGradient>
<linearGradient id="paint7_linear" x1="33.3575" y1="0.502603" x2="78.6549" y2="79.5684" gradientUnits="userSpaceOnUse">
<stop stop-color="#706EC4"/>
<stop offset="0.0222208" stop-color="#6D6BC2"/>
<stop offset="0.2509" stop-color="#5651AC"/>
<stop offset="0.4865" stop-color="#463F9D"/>
<stop offset="0.7314" stop-color="#3C3494"/>
<stop offset="1" stop-color="#393091"/>
</linearGradient>
<clipPath id="clip0">
<rect width="99" height="79" fill="white"/>
</clipPath>
</defs>
</svg>
